<?xml version="1.0" encoding="UTF-8"?>
<!DOCTYPE svg PUBLIC "-//W3C//DTD SVG 1.1//EN" "http://www.w3.org/Graphics/SVG/1.1/DTD/svg11.dtd">
<svg xmlns="http://www.w3.org/2000/svg" version="1.1" width="212px" height="238px" style="shape-rendering:geometricPrecision; text-rendering:geometricPrecision; image-rendering:optimizeQuality; fill-rule:evenodd; clip-rule:evenodd" xmlns:xlink="http://www.w3.org/1999/xlink">
<g><path style="opacity:1" fill="#fefefe" d="M -0.5,-0.5 C 33.1667,-0.5 66.8333,-0.5 100.5,-0.5C 70.4318,16.3729 40.4318,33.5395 10.5,51C 5.53625,54.1239 1.86958,58.2906 -0.5,63.5C -0.5,42.1667 -0.5,20.8333 -0.5,-0.5 Z"/></g>
<g><path style="opacity:1" fill="#649ad2" d="M 100.5,-0.5 C 103.833,-0.5 107.167,-0.5 110.5,-0.5C 140.568,16.3729 170.568,33.5395 200.5,51C 204.07,53.0678 206.737,55.9012 208.5,59.5C 194.243,67.1001 180.243,75.1001 166.5,83.5C 149.762,56.4691 125.429,44.9691 93.5,49C 66.4266,54.735 47.9266,70.5684 38,96.5C 32.1165,116.763 34.2832,136.096 44.5,154.5C 30.5,162.167 16.5,169.833 2.5,177.5C 1.20278,175.629 0.202776,173.629 -0.5,171.5C -0.5,135.5 -0.5,99.5 -0.5,63.5C 1.86958,58.2906 5.53625,54.1239 10.5,51C 40.4318,33.5395 70.4318,16.3729 100.5,-0.5 Z"/></g>
<g><path style="opacity:1" fill="#fefefe" d="M 110.5,-0.5 C 144.167,-0.5 177.833,-0.5 211.5,-0.5C 211.5,20.8333 211.5,42.1667 211.5,63.5C 210.5,62.1667 209.5,60.8333 208.5,59.5C 206.737,55.9012 204.07,53.0678 200.5,51C 170.568,33.5395 140.568,16.3729 110.5,-0.5 Z"/></g>
<g><path style="opacity:1" fill="#fdfdfe" d="M 166.5,83.5 C 156.5,89.1667 146.5,94.8333 136.5,100.5C 123.485,83.6627 107.152,79.496 87.5,88C 69.814,100.874 65.814,117.041 75.5,136.5C 87.1263,153.004 102.46,157.504 121.5,150C 127.33,146.669 131.997,142.169 135.5,136.5C 144.592,141.075 153.592,145.908 162.5,151C 164.093,151.949 165.426,153.115 166.5,154.5C 147.401,182.596 121.067,193.429 87.5,187C 69.103,181.476 54.7697,170.643 44.5,154.5C 34.2832,136.096 32.1165,116.763 38,96.5C 47.9266,70.5684 66.4266,54.735 93.5,49C 125.429,44.9691 149.762,56.4691 166.5,83.5 Z"/></g>
<g><path style="opacity:1" fill="#01579b" d="M 208.5,59.5 C 209.5,60.8333 210.5,62.1667 211.5,63.5C 211.5,99.5 211.5,135.5 211.5,171.5C 210.797,173.629 209.797,175.629 208.5,177.5C 194.751,169.294 180.751,161.627 166.5,154.5C 165.426,153.115 164.093,151.949 162.5,151C 153.592,145.908 144.592,141.075 135.5,136.5C 126.001,130.249 116.334,124.249 106.5,118.5C 116.5,112.5 126.5,106.5 136.5,100.5C 146.5,94.8333 156.5,89.1667 166.5,83.5C 180.243,75.1001 194.243,67.1001 208.5,59.5 Z"/></g>
<g><path style="opacity:1" fill="#6399d1" d="M 136.5,100.5 C 126.5,106.5 116.5,112.5 106.5,118.5C 95.6674,123.746 85.334,129.746 75.5,136.5C 65.814,117.041 69.814,100.874 87.5,88C 107.152,79.496 123.485,83.6627 136.5,100.5 Z"/></g>
<g><path style="opacity:1" fill="#fafbfc" d="M 160.5,106.5 C 163.167,106.5 165.833,106.5 168.5,106.5C 168.5,109.167 168.5,111.833 168.5,114.5C 171.167,114.5 173.833,114.5 176.5,114.5C 176.5,117.167 176.5,119.833 176.5,122.5C 173.833,122.5 171.167,122.5 168.5,122.5C 168.5,125.167 168.5,127.833 168.5,130.5C 165.833,130.5 163.167,130.5 160.5,130.5C 160.5,127.833 160.5,125.167 160.5,122.5C 157.833,122.5 155.167,122.5 152.5,122.5C 152.5,119.833 152.5,117.167 152.5,114.5C 155.167,114.5 157.833,114.5 160.5,114.5C 160.5,111.833 160.5,109.167 160.5,106.5 Z"/></g>
<g><path style="opacity:1" fill="#f6f8fb" d="M 189.5,106.5 C 192.167,106.5 194.833,106.5 197.5,106.5C 197.5,109.167 197.5,111.833 197.5,114.5C 200.167,114.5 202.833,114.5 205.5,114.5C 205.5,117.167 205.5,119.833 205.5,122.5C 202.833,122.5 200.167,122.5 197.5,122.5C 197.5,125.167 197.5,127.833 197.5,130.5C 194.833,130.5 192.167,130.5 189.5,130.5C 189.5,127.833 189.5,125.167 189.5,122.5C 186.833,122.5 184.167,122.5 181.5,122.5C 181.5,119.833 181.5,117.167 181.5,114.5C 184.167,114.5 186.833,114.5 189.5,114.5C 189.5,111.833 189.5,109.167 189.5,106.5 Z"/></g>
<g><path style="opacity:1" fill="#024382" d="M 106.5,118.5 C 116.334,124.249 126.001,130.249 135.5,136.5C 131.997,142.169 127.33,146.669 121.5,150C 102.46,157.504 87.1263,153.004 75.5,136.5C 85.334,129.746 95.6674,123.746 106.5,118.5 Z"/></g>
<g><path style="opacity:1" fill="#024482" d="M 44.5,154.5 C 54.7697,170.643 69.103,181.476 87.5,187C 121.067,193.429 147.401,182.596 166.5,154.5C 180.751,161.627 194.751,169.294 208.5,177.5C 206.737,181.099 204.07,183.932 200.5,186C 170.568,203.46 140.568,220.627 110.5,237.5C 107.167,237.5 103.833,237.5 100.5,237.5C 70.4318,220.627 40.4318,203.46 10.5,186C 6.92954,183.932 4.26287,181.099 2.5,177.5C 16.5,169.833 30.5,162.167 44.5,154.5 Z"/></g>
<g><path style="opacity:1" fill="#fdfefe" d="M -0.5,171.5 C 0.202776,173.629 1.20278,175.629 2.5,177.5C 4.26287,181.099 6.92954,183.932 10.5,186C 40.4318,203.46 70.4318,220.627 100.5,237.5C 66.8333,237.5 33.1667,237.5 -0.5,237.5C -0.5,215.5 -0.5,193.5 -0.5,171.5 Z"/></g>
<g><path style="opacity:1" fill="#fdfefe" d="M 211.5,171.5 C 211.5,193.5 211.5,215.5 211.5,237.5C 177.833,237.5 144.167,237.5 110.5,237.5C 140.568,220.627 170.568,203.46 200.5,186C 204.07,183.932 206.737,181.099 208.5,177.5C 209.797,175.629 210.797,173.629 211.5,171.5 Z"/></g>
</svg>
