<?xml version="1.0" encoding="UTF-8"?>
<!DOCTYPE svg PUBLIC "-//W3C//DTD SVG 1.1//EN" "http://www.w3.org/Graphics/SVG/1.1/DTD/svg11.dtd">
<svg xmlns="http://www.w3.org/2000/svg" version="1.1" width="926px" height="1023px" style="shape-rendering:geometricPrecision; text-rendering:geometricPrecision; image-rendering:optimizeQuality; fill-rule:evenodd; clip-rule:evenodd" xmlns:xlink="http://www.w3.org/1999/xlink">
<g><path style="opacity:0.998" fill="#659ad2" d="M 450.5,-0.5 C 458.167,-0.5 465.833,-0.5 473.5,-0.5C 478.429,1.20199 483.429,3.03532 488.5,5C 627.422,82.266 766.089,159.933 904.5,238C 907.371,240.703 910.038,243.536 912.5,246.5C 862.28,276.957 811.28,306.457 759.5,335C 757.973,336.032 756.64,337.199 755.5,338.5C 752.551,331.942 749.051,325.609 745,319.5C 682.618,231.535 597.452,182.035 489.5,171C 368.354,164.843 269.521,208.343 193,301.5C 124.515,393.601 105.182,495.267 135,606.5C 142.066,630.539 151.566,653.539 163.5,675.5C 111.117,704.775 58.9502,734.442 7,764.5C 4.25995,760.353 2.09328,756.02 0.5,751.5C 0.166667,751.5 -0.166667,751.5 -0.5,751.5C -0.5,590.833 -0.5,430.167 -0.5,269.5C 2.94273,255.537 10.6094,244.37 22.5,236C 158.995,159.92 295.328,83.5868 431.5,7C 437.604,3.58334 443.937,1.08334 450.5,-0.5 Z"/></g>
<g><path style="opacity:1" fill="#fefefe" d="M 755.5,338.5 C 706.536,365.649 657.869,393.315 609.5,421.5C 608.504,421.586 607.671,421.252 607,420.5C 569.2,364.683 516.367,338.183 448.5,341C 378.018,349.825 329.185,386.992 302,452.5C 289.125,492.253 289.458,531.919 303,571.5C 305.706,578.484 308.872,585.151 312.5,591.5C 344.696,648.039 393.529,678.039 459,681.5C 524.148,680.691 573.982,653.024 608.5,598.5C 609.117,598.389 609.617,598.056 610,597.5C 659.086,624.627 708.253,651.627 757.5,678.5C 758.298,678.957 758.631,679.624 758.5,680.5C 697.419,781.63 607.752,838.463 489.5,851C 378.393,857.314 284.893,820.147 209,739.5C 191.613,719.72 176.447,698.386 163.5,675.5C 151.566,653.539 142.066,630.539 135,606.5C 105.182,495.267 124.515,393.601 193,301.5C 269.521,208.343 368.354,164.843 489.5,171C 597.452,182.035 682.618,231.535 745,319.5C 749.051,325.609 752.551,331.942 755.5,338.5 Z"/></g>
<g><path style="opacity:1" fill="#00599b" d="M 912.5,246.5 C 918.93,253.36 923.263,261.36 925.5,270.5C 925.5,430.833 925.5,591.167 925.5,751.5C 923.976,756.882 921.642,761.882 918.5,766.5C 867.901,739.533 817.567,712.033 767.5,684C 764.691,682.259 761.691,681.092 758.5,680.5C 758.631,679.624 758.298,678.957 757.5,678.5C 708.253,651.627 659.086,624.627 610,597.5C 609.617,598.056 609.117,598.389 608.5,598.5C 608.586,597.504 608.252,596.671 607.5,596C 557.673,568.921 508.006,541.587 458.5,514C 456.35,512.589 454.016,511.755 451.5,511.5C 503.916,480.962 556.583,450.962 609.5,421.5C 657.869,393.315 706.536,365.649 755.5,338.5C 756.64,337.199 757.973,336.032 759.5,335C 811.28,306.457 862.28,276.957 912.5,246.5 Z"/></g>
<g><path style="opacity:1" fill="#659ad1" d="M 609.5,421.5 C 556.583,450.962 503.916,480.962 451.5,511.5C 407.392,536.056 363.392,560.889 319.5,586C 316.664,587.391 314.331,589.224 312.5,591.5C 308.872,585.151 305.706,578.484 303,571.5C 289.458,531.919 289.125,492.253 302,452.5C 329.185,386.992 378.018,349.825 448.5,341C 516.367,338.183 569.2,364.683 607,420.5C 607.671,421.252 608.504,421.586 609.5,421.5 Z"/></g>
<g><path style="opacity:1" fill="#004482" d="M 451.5,511.5 C 454.016,511.755 456.35,512.589 458.5,514C 508.006,541.587 557.673,568.921 607.5,596C 608.252,596.671 608.586,597.504 608.5,598.5C 573.982,653.024 524.148,680.691 459,681.5C 393.529,678.039 344.696,648.039 312.5,591.5C 314.331,589.224 316.664,587.391 319.5,586C 363.392,560.889 407.392,536.056 451.5,511.5 Z"/></g>
<g><path style="opacity:0.997" fill="#004482" d="M 163.5,675.5 C 176.447,698.386 191.613,719.72 209,739.5C 284.893,820.147 378.393,857.314 489.5,851C 607.752,838.463 697.419,781.63 758.5,680.5C 761.691,681.092 764.691,682.259 767.5,684C 817.567,712.033 867.901,739.533 918.5,766.5C 913.682,776.151 906.348,783.318 896.5,788C 762.672,862.747 629.005,937.747 495.5,1013C 488.416,1017.05 481.083,1020.22 473.5,1022.5C 466.167,1022.5 458.833,1022.5 451.5,1022.5C 443.917,1020.22 436.584,1017.05 429.5,1013C 294.167,937 158.833,861 23.5,785C 10.8866,777.222 3.21995,766.055 0.5,751.5C 2.09328,756.02 4.25995,760.353 7,764.5C 58.9502,734.442 111.117,704.775 163.5,675.5 Z"/></g>
</svg>
