<?xml version="1.0" standalone="no"?>
<!DOCTYPE svg PUBLIC "-//W3C//DTD SVG 20010904//EN"
 "http://www.w3.org/TR/2001/REC-SVG-20010904/DTD/svg10.dtd">
<svg version="1.0" xmlns="http://www.w3.org/2000/svg"
 width="100.000000pt" height="100.000000pt" viewBox="0 0 980.000000 980.000000"
 preserveAspectRatio="xMidYMid meet">

<g transform="translate(0.000000,980.000000) scale(0.100000,-0.100000)"
fill="#000000" stroke="none">
<path d="M2202 9139 c-367 -48 -664 -347 -712 -719 -8 -60 -10 -1099 -8 -3575
l3 -3490 23 -80 c82 -291 306 -514 599 -598 l78 -22 3026 -3 3026 -2 33 23
c57 37 58 67 11 193 -164 439 -159 859 15 1276 l24 58 -2 3445 -3 3445 -28 27
-27 28 -2998 1 c-1648 1 -3025 -2 -3060 -7z m403 -649 l0 -455 -225 -5 c-198
-5 -234 -8 -300 -29 -137 -43 -249 -109 -352 -209 l-48 -46 0 306 c0 358 8
419 71 547 71 145 212 266 368 316 83 27 143 33 321 31 l165 -1 0 -455z m605
-2855 l0 -3315 -170 -1 c-93 -1 -179 -1 -190 -1 -11 0 -24 0 -30 1 -7 1 -10
1113 -10 3316 l0 3315 200 0 200 0 0 -3315z m4910 2 c0 -1823 -2 -3316 -4
-3318 -2 -2 -1062 -3 -2355 -1 l-2351 2 0 3315 0 3315 2355 0 2355 0 0 -3313z
m-5547 2197 l37 -7 -2 -386 -3 -386 -225 -6 c-192 -5 -236 -9 -300 -28 -126
-37 -247 -110 -353 -210 l-48 -46 3 275 c4 268 5 277 31 357 79 236 284 403
532 433 78 9 279 12 328 4z m37 -2203 l0 -1219 -217 -4 c-199 -5 -226 -8 -306
-32 -142 -42 -260 -111 -347 -200 -24 -25 -48 -46 -52 -46 -5 0 -7 496 -6
1103 l3 1102 23 70 c60 178 176 311 339 387 104 49 149 56 366 57 l197 1 0
-1219z m0 -1810 l0 -389 -212 -5 c-177 -3 -227 -8 -293 -26 -143 -39 -278
-115 -370 -210 -21 -23 -43 -41 -47 -41 -15 0 -9 465 7 548 38 188 167 358
335 441 119 58 182 69 398 70 l182 1 0 -389z m-5 -1050 l0 -453 -135 1 c-353
4 -551 -62 -742 -247 l-48 -46 0 307 c0 235 4 326 15 385 37 186 168 358 335
441 122 60 182 70 395 68 l180 -2 0 -454z m5462 -663 c-2 -7 -17 -58 -32 -113
-15 -55 -32 -118 -38 -140 l-12 -40 -2115 -3 c-1163 -1 -2134 -2 -2158 -2 -35
0 -49 -6 -73 -29 -40 -40 -40 -89 0 -133 l29 -33 2147 -2 2147 -3 0 -127 1
-128 -2601 -5 -2601 -5 -21 -21 c-12 -12 -24 -39 -27 -61 -5 -35 -1 -45 25
-74 l30 -34 2611 -3 2610 -2 10 -38 c6 -20 15 -57 20 -82 6 -25 20 -74 31
-110 11 -36 20 -66 20 -68 0 -1 -1320 -1 -2932 0 l-2933 3 -82 28 c-101 34
-215 109 -282 184 -57 63 -122 189 -142 273 -23 92 -16 242 14 335 75 231 280
404 514 434 37 5 1368 9 2957 10 2307 1 2887 -2 2883 -11z"/>
<path d="M5015 8450 c-158 -29 -249 -56 -343 -102 -316 -154 -509 -491 -462
-803 29 -193 109 -318 331 -522 71 -64 87 -105 68 -171 -21 -78 -101 -149
-245 -218 -208 -100 -307 -181 -362 -294 -37 -77 -47 -145 -32 -219 41 -212
220 -380 515 -481 624 -214 1129 -193 1573 67 41 24 77 43 82 43 4 0 48 -46
96 -102 453 -521 774 -834 983 -958 121 -72 209 -87 288 -49 58 28 100 81 114
146 11 46 10 64 -9 139 -36 145 -159 378 -335 632 -89 129 -394 539 -510 686
l-86 109 18 36 c33 65 91 229 110 313 98 422 9 851 -246 1190 -209 277 -519
466 -899 549 -148 32 -495 37 -649 9z m510 -191 c636 -83 1088 -551 1122
-1164 9 -159 -29 -384 -86 -518 l-21 -48 -59 73 c-45 56 -102 106 -244 213
l-186 139 6 81 c9 136 -35 261 -123 350 -66 65 -309 224 -467 304 -211 107
-364 147 -430 112 -37 -20 -60 -67 -54 -110 3 -20 30 -81 61 -136 113 -203
145 -332 125 -520 -17 -165 -3 -213 84 -300 77 -77 165 -121 274 -136 l78 -12
89 -191 c107 -227 109 -231 225 -370 70 -83 88 -112 80 -122 -18 -22 -208
-112 -304 -143 -236 -78 -501 -89 -787 -31 -122 25 -321 83 -418 121 -224 90
-357 250 -318 383 21 68 89 127 225 192 212 101 316 186 377 309 42 81 48 203
16 289 -19 51 -41 77 -165 200 -116 115 -148 153 -173 206 -79 165 -62 349 48
513 56 84 104 131 192 188 179 115 524 168 833 128z m-121 -762 c250 -131 385
-229 429 -311 31 -58 31 -184 0 -242 -45 -84 -155 -154 -243 -154 -72 0 -194
61 -220 111 -9 16 -9 51 0 142 11 105 10 135 -4 215 -15 87 -42 177 -80 265
-9 20 -13 37 -10 37 4 0 62 -28 128 -63z m681 -818 c52 -39 95 -74 95 -78 0
-8 -246 -211 -255 -211 -7 0 -115 225 -115 239 0 16 153 132 166 127 8 -3 56
-37 109 -77z m387 -386 c396 -496 656 -853 820 -1126 84 -140 141 -273 136
-316 -3 -22 -7 -26 -33 -23 -92 10 -338 219 -638 540 -89 96 -166 180 -172
186 -238 269 -550 640 -550 655 0 7 293 251 301 251 2 0 63 -75 136 -167z"/>
<path d="M4363 4130 c-13 -5 -32 -24 -43 -42 -27 -43 -20 -84 20 -120 l30 -28
1421 0 c1544 0 1461 -3 1487 55 20 44 14 75 -22 111 l-34 34 -1419 -1 c-818 0
-1427 -4 -1440 -9z"/>
<path d="M4370 3573 c-27 -10 -49 -35 -60 -69 -14 -41 8 -95 46 -113 18 -8
403 -11 1440 -11 1205 0 1419 2 1443 14 29 15 51 53 51 87 0 30 -30 76 -57 88
-25 11 -2832 15 -2863 4z"/>
</g>
</svg>
