<?xml version="1.0" standalone="no"?>
<!DOCTYPE svg PUBLIC "-//W3C//DTD SVG 20010904//EN"
 "http://www.w3.org/TR/2001/REC-SVG-20010904/DTD/svg10.dtd">
<svg version="1.0" xmlns="http://www.w3.org/2000/svg"
 width="75pt" height="75pt" viewBox="0 0 225.000000 225.000000"
 preserveAspectRatio="xMidYMid meet">

<g transform="translate(0.000000,225.000000) scale(0.100000,-0.100000)"
fill="#000000" stroke="none">
<path d="M538 2141 c-111 -30 -176 -69 -264 -156 -93 -91 -146 -185 -170 -294
-20 -97 -20 -1036 1 -1133 45 -213 231 -402 446 -453 48 -11 128 -15 327 -15
l262 0 0 380 0 379 -127 3 -128 3 0 165 0 165 126 3 126 3 6 147 c7 154 21
220 64 305 33 66 103 133 171 165 54 26 66 27 245 30 l188 4 -3 -164 -3 -163
-105 -5 c-180 -9 -220 -51 -220 -226 l0 -94 160 0 c121 0 160 -3 160 -12 0 -7
-14 -84 -31 -170 l-32 -158 -131 0 -131 0 0 -381 0 -381 110 5 c128 6 202 28
295 88 112 72 196 176 247 304 l28 70 0 565 0 565 -28 75 c-65 175 -199 308
-377 372 -65 23 -67 23 -605 25 -497 2 -545 1 -607 -16z"/>
</g>
</svg>
