<?xml version="1.0" standalone="no"?>
<!DOCTYPE svg PUBLIC "-//W3C//DTD SVG 20010904//EN"
 "http://www.w3.org/TR/2001/REC-SVG-20010904/DTD/svg10.dtd">
<svg version="1.0" xmlns="http://www.w3.org/2000/svg"
 width="100.000000pt" height="100.000000pt" viewBox="0 0 224.000000 224.000000"
 preserveAspectRatio="xMidYMid meet">

<g transform="translate(0.000000,224.000000) scale(0.100000,-0.100000)"
fill="#000000" stroke="none">
<path d="M1668 1803 l-127 -128 5 -45 6 -45 -185 -172 c-138 -128 -184 -177
-181 -190 3 -11 -6 -31 -20 -48 -41 -48 -29 -66 14 -20 13 14 35 25 49 26 19
1 45 22 96 78 39 42 113 122 166 179 l96 102 49 0 49 0 123 123 c67 67 122
126 122 130 0 4 -26 7 -59 7 l-59 0 -8 65 -9 66 -127 -128z"/>
<path d="M1025 1894 c-219 -45 -345 -111 -467 -243 -151 -164 -214 -338 -205
-566 9 -233 100 -415 280 -566 294 -247 743 -232 1025 34 203 192 287 478 222
756 -20 85 -96 246 -116 246 -5 0 -26 -14 -47 -31 l-37 -30 35 -66 c99 -185
100 -414 3 -608 -33 -68 -59 -102 -127 -170 -137 -135 -276 -193 -466 -193
-190 0 -329 58 -465 193 -135 134 -200 286 -200 470 0 184 65 335 200 470 136
136 272 193 465 194 121 0 202 -19 308 -74 44 -23 77 -35 77 -28 0 7 14 26 31
44 l31 32 -30 21 c-55 39 -166 83 -257 102 -81 17 -208 23 -260 13z"/>
<path d="M991 1604 c-237 -64 -398 -312 -362 -557 22 -143 120 -289 245 -362
150 -87 360 -85 512 6 168 101 267 315 234 508 -11 65 -66 201 -87 214 -6 4
-26 -11 -47 -32 l-37 -38 25 -49 c61 -118 51 -280 -23 -387 -45 -65 -115 -123
-178 -147 -199 -74 -400 3 -500 191 -26 50 -28 62 -28 169 0 107 2 119 28 168
107 204 332 277 540 176 l38 -18 37 38 c36 36 37 37 17 52 -98 75 -279 105
-414 68z"/>
<path d="M1079 1380 c-57 -10 -79 -21 -131 -68 -62 -56 -83 -104 -83 -192 0
-85 20 -133 77 -186 57 -55 105 -74 181 -74 80 0 120 15 177 66 52 47 80 102
87 170 5 51 -12 144 -26 144 -4 0 -24 -17 -44 -38 -29 -30 -37 -46 -37 -75 0
-21 -9 -55 -20 -76 -55 -109 -216 -107 -269 2 -26 53 -26 80 -2 133 24 52 74
84 133 84 38 0 49 5 81 38 20 21 37 41 37 45 0 21 -98 37 -161 27z"/>
<path d="M1086 1169 c-35 -28 -33 -73 6 -102 23 -17 31 -18 57 -8 26 11 48 38
38 47 -2 2 -18 -2 -35 -8 -27 -10 -34 -10 -48 4 -14 14 -14 18 1 48 21 40 15
46 -19 19z"/>
</g>
</svg>
