<?xml version="1.0" standalone="no"?>
<!DOCTYPE svg PUBLIC "-//W3C//DTD SVG 20010904//EN"
 "http://www.w3.org/TR/2001/REC-SVG-20010904/DTD/svg10.dtd">
<svg version="1.0" xmlns="http://www.w3.org/2000/svg"
 width="100.000000pt" height="100.000000pt" viewBox="0 0 626.000000 626.000000"
 preserveAspectRatio="xMidYMid meet">

<g transform="translate(0.000000,626.000000) scale(0.100000,-0.100000)"
fill="#000000" stroke="none">
<path d="M2415 4459 c-390 -208 -789 -421 -885 -472 l-175 -94 -3 -396 -2
-396 185 -111 c175 -105 185 -113 185 -142 0 -44 -19 -509 -24 -598 l-5 -74
39 -37 c93 -89 439 -164 915 -200 209 -15 767 -15 970 0 479 36 822 111 915
200 38 36 38 36 34 106 -6 99 -24 556 -24 599 l0 36 530 316 c292 175 530 320
530 323 0 3 -226 126 -503 273 -276 147 -832 443 -1236 657 -404 215 -734 391
-735 390 -1 0 -320 -171 -711 -380z"/>
<path d="M953 3681 c-161 -86 -293 -159 -293 -162 0 -5 566 -347 592 -357 4
-2 8 150 8 337 0 188 -3 341 -7 340 -5 -1 -140 -72 -300 -158z"/>
<path d="M1372 1785 c0 -16 2 -22 5 -12 2 9 2 23 0 30 -3 6 -5 -1 -5 -18z"/>
<path d="M1282 1730 c0 -19 2 -27 5 -17 2 9 2 25 0 35 -3 9 -5 1 -5 -18z"/>
<path d="M1303 1655 c0 -38 2 -53 4 -32 2 20 2 52 0 70 -2 17 -4 1 -4 -38z"/>
<path d="M1283 1640 c0 -25 2 -35 4 -22 2 12 2 32 0 45 -2 12 -4 2 -4 -23z"/>
<path d="M1222 1550 c0 -14 2 -19 5 -12 2 6 2 18 0 25 -3 6 -5 1 -5 -13z"/>
</g>
</svg>
