<?xml version="1.0" standalone="no"?>
<!DOCTYPE svg PUBLIC "-//W3C//DTD SVG 20010904//EN"
 "http://www.w3.org/TR/2001/REC-SVG-20010904/DTD/svg10.dtd">
<svg version="1.0" xmlns="http://www.w3.org/2000/svg"
 width="100.000000pt" height="100.000000pt" viewBox="0 0 260.000000 194.000000"
 preserveAspectRatio="xMidYMid meet">

<g transform="translate(0.000000,194.000000) scale(0.100000,-0.100000)"
fill="#000000" stroke="none">
<path d="M1435 1925 c-5 -2 -72 -18 -147 -35 l-138 -32 0 -159 0 -159 -32 0
c-98 0 -148 -115 -59 -135 32 -7 111 22 127 46 5 8 11 81 14 163 l5 149 105
29 c58 15 111 28 118 28 9 0 12 -27 12 -104 l0 -104 -29 -7 c-94 -20 -92 -130
2 -111 66 13 67 18 67 238 0 182 -1 198 -17 197 -10 0 -22 -2 -28 -4z"/>
<path d="M774 1540 c-129 -69 -294 -205 -294 -244 0 -27 18 -46 44 -46 11 0
45 23 77 50 76 66 183 139 247 169 56 26 75 58 52 86 -19 23 -63 18 -126 -15z"/>
<path d="M1737 1549 c-25 -35 -9 -56 79 -103 111 -59 183 -116 286 -225 91
-97 125 -113 148 -71 18 34 3 57 -104 165 -99 100 -200 176 -303 229 -63 31
-87 33 -106 5z"/>
<path d="M1295 1211 c-11 -5 -29 -18 -39 -30 -11 -12 -48 -36 -83 -53 -95 -47
-139 -93 -153 -165 -8 -34 -10 -85 -6 -127 6 -64 5 -70 -19 -92 -43 -40 -31
-83 63 -229 109 -170 168 -217 273 -217 115 0 172 47 286 235 73 121 88 174
57 208 -15 17 -18 34 -15 103 4 124 -9 158 -98 246 -108 107 -198 148 -266
121z m85 -361 c69 -16 148 -30 177 -30 l51 0 -13 -50 -13 -50 33 0 c18 0 35
-6 38 -12 14 -43 -143 -298 -211 -343 -81 -54 -184 -40 -254 33 -42 43 -166
235 -175 271 -8 32 8 55 41 59 20 3 26 8 22 20 -3 9 -6 37 -8 61 -3 42 -2 45
32 57 58 21 147 16 280 -16z"/>
<path d="M220 1179 c-24 -5 -66 -23 -93 -41 -199 -135 -151 -437 81 -504 177
-52 355 85 355 271 -1 179 -165 311 -343 274z m148 -75 c80 -33 132 -111 132
-199 0 -176 -194 -277 -342 -180 -90 59 -120 193 -66 287 24 40 79 87 118 101
32 11 122 6 158 -9z"/>
<path d="M234 1035 c-3 -6 -4 -52 -2 -101 l3 -89 90 0 90 0 3 28 3 27 -65 0
-65 0 -3 72 c-3 67 -4 72 -26 73 -13 1 -26 -3 -28 -10z"/>
<path d="M2054 1016 c-18 -13 -19 -28 -19 -199 0 -141 3 -188 14 -200 12 -15
43 -17 266 -17 231 0 253 1 268 18 15 16 17 45 17 199 0 162 -2 182 -18 196
-16 15 -50 17 -263 17 -196 0 -249 -3 -265 -14z m304 -154 c34 -24 62 -49 62
-55 -1 -13 -131 -107 -148 -107 -17 0 -22 28 -22 114 0 81 11 112 34 99 6 -4
39 -26 74 -51z"/>
<path d="M169 539 c-20 -20 -21 -28 -14 -108 9 -107 27 -197 62 -303 30 -92
59 -130 92 -121 41 11 42 34 6 137 -39 108 -65 239 -65 327 0 48 -4 60 -22 73
-29 21 -34 20 -59 -5z"/>
<path d="M2393 458 c-6 -7 -18 -58 -27 -112 -9 -55 -30 -139 -46 -187 -33 -95
-36 -119 -18 -137 16 -16 53 -15 65 1 5 6 19 37 31 67 56 144 88 334 62 365
-15 18 -54 20 -67 3z"/>
<path d="M1074 269 c-18 -11 -99 -37 -180 -58 -141 -36 -187 -53 -225 -83 -23
-19 -69 -88 -69 -104 0 -12 121 -14 730 -14 503 0 730 3 730 10 0 34 -68 114
-119 140 -14 7 -92 30 -174 51 -82 21 -165 47 -183 58 l-34 20 -16 -34 c-50
-106 -185 -154 -294 -104 -56 25 -86 53 -111 102 -11 20 -20 37 -22 36 -1 0
-16 -9 -33 -20z"/>
</g>
</svg>
