<?xml version="1.0" standalone="no"?>
<!DOCTYPE svg PUBLIC "-//W3C//DTD SVG 20010904//EN"
 "http://www.w3.org/TR/2001/REC-SVG-20010904/DTD/svg10.dtd">
<svg version="1.0" xmlns="http://www.w3.org/2000/svg"
 width="225.000000pt" height="225.000000pt" viewBox="0 0 225.000000 225.000000"
 preserveAspectRatio="xMidYMid meet">

<g transform="translate(0.000000,225.000000) scale(0.100000,-0.100000)"
fill="#000000" stroke="none">
<path d="M954 2225 c-234 -36 -445 -144 -615 -314 -437 -437 -437 -1135 0
-1572 253 -253 599 -368 951 -314 241 36 448 141 621 314 437 437 437 1135 0
1572 -253 253 -605 369 -957 314z m577 -464 c118 -38 192 -112 231 -233 18
-55 21 -95 26 -329 5 -307 -6 -447 -42 -523 -56 -122 -157 -189 -306 -206
-109 -13 -520 -13 -628 0 -203 23 -317 137 -342 340 -13 108 -13 508 0 622 24
207 136 322 340 348 36 5 198 7 360 6 269 -3 301 -5 361 -25z"/>
<path d="M844 1661 c-100 -10 -165 -39 -204 -93 -49 -68 -55 -114 -55 -448 1
-354 7 -392 75 -460 69 -69 106 -75 465 -75 359 0 396 6 465 75 69 69 75 106
75 465 0 359 -6 396 -75 465 -63 63 -104 71 -405 75 -143 2 -297 0 -341 -4z
m669 -112 c26 -12 47 -47 47 -80 0 -31 -44 -69 -81 -69 -72 0 -106 84 -54 135
26 27 51 31 88 14z m-271 -105 c231 -81 297 -385 123 -559 -195 -196 -524 -89
-575 186 -46 251 207 460 452 373z"/>
<path d="M1032 1324 c-85 -44 -126 -115 -120 -213 4 -77 32 -126 95 -169 33
-24 48 -27 118 -27 70 0 85 3 118 27 22 14 51 43 65 65 24 33 27 48 27 118 0
70 -3 85 -27 118 -44 65 -92 91 -173 95 -51 2 -79 -2 -103 -14z"/>
</g>
</svg>
