<?xml version="1.0" encoding="UTF-8"?>
<!DOCTYPE svg PUBLIC "-//W3C//DTD SVG 1.1//EN" "http://www.w3.org/Graphics/SVG/1.1/DTD/svg11.dtd">
<svg xmlns="http://www.w3.org/2000/svg" version="1.1" width="259px" height="194px" style="shape-rendering:geometricPrecision; text-rendering:geometricPrecision; image-rendering:optimizeQuality; fill-rule:evenodd; clip-rule:evenodd" xmlns:xlink="http://www.w3.org/1999/xlink">
<g><path style="opacity:1" fill="#fefefe" d="M -0.5,-0.5 C 85.8333,-0.5 172.167,-0.5 258.5,-0.5C 258.5,64.1667 258.5,128.833 258.5,193.5C 172.167,193.5 85.8333,193.5 -0.5,193.5C -0.5,128.833 -0.5,64.1667 -0.5,-0.5 Z"/></g>
<g><path style="opacity:1" fill="#fc982e" d="M 99.5,57.5 C 100.552,57.3505 101.552,57.5172 102.5,58C 95.0508,61.6405 88.8841,66.8072 84,73.5C 82.8285,79.1611 84.4952,83.8278 89,87.5C 91.835,94.837 89.835,100.504 83,104.5C 83.2821,102.384 83.7821,100.217 84.5,98C 82.0298,93.518 79.5298,89.018 77,84.5C 75.0895,75.3856 78.2561,68.5522 86.5,64C 90.9252,61.7874 95.2585,59.6207 99.5,57.5 Z"/></g>
<g><path style="opacity:1" fill="#fb992f" d="M 89.5,30.5 C 92.9426,35.4037 93.4426,40.7371 91,46.5C 89.3333,49.1667 87.6667,51.8333 86,54.5C 79.8089,59.9353 73.8089,65.602 68,71.5C 65.6261,75.8935 64.9595,80.5602 66,85.5C 68.4958,90.838 71.1625,95.838 74,100.5C 68.588,95.7588 63.9213,90.4255 60,84.5C 58.566,80.5935 58.2327,76.5935 59,72.5C 68.5254,63.7301 77.8587,54.7301 87,45.5C 89.0331,40.7046 89.8664,35.7046 89.5,30.5 Z"/></g>
<g><path style="opacity:1" fill="#3a86a5" d="M 137.5,107.5 C 139.833,107.5 142.167,107.5 144.5,107.5C 144.667,121.504 144.5,135.504 144,149.5C 142.722,154.442 139.722,157.775 135,159.5C 133.378,159.046 132.212,158.046 131.5,156.5C 133.858,154.976 135.691,152.976 137,150.5C 137.5,136.171 137.667,121.837 137.5,107.5 Z"/></g>
<g><path style="opacity:1" fill="#3380a2" d="M 50.5,102.5 C 52.5273,102.338 54.5273,102.505 56.5,103C 52.6578,103.721 49.3245,105.387 46.5,108C 47.6226,109.044 48.9559,109.71 50.5,110C 60.1667,110.667 69.8333,110.667 79.5,110C 86.8779,109.322 94.2112,108.656 101.5,108C 100.672,108.915 99.6721,109.581 98.5,110C 79.6079,113.72 60.6079,114.387 41.5,112C 37.3826,111.451 36.7159,109.784 39.5,107C 43.307,105.572 46.9736,104.072 50.5,102.5 Z"/></g>
<g><path style="opacity:1" fill="#3984a2" d="M 110.5,100.5 C 121.251,100.395 125.417,105.395 123,115.5C 118.458,121.081 113.125,124.081 107,124.5C 113.29,121.722 117.124,117.055 118.5,110.5C 117.866,104.71 114.533,101.877 108.5,102C 109.416,101.722 110.082,101.222 110.5,100.5 Z"/></g>
<g><path style="opacity:1" fill="#3984a3" d="M 210.5,118.5 C 215.179,118.334 219.845,118.501 224.5,119C 225.931,119.465 227.097,120.299 228,121.5C 229.443,130.392 229.943,139.392 229.5,148.5C 227.179,148.771 225.179,148.104 223.5,146.5C 217.897,150.398 212.397,150.398 207,146.5C 204.155,138.322 206.989,133.156 215.5,131C 218.146,130.503 220.813,130.336 223.5,130.5C 224.041,127.348 223.041,124.848 220.5,123C 216.336,122.187 212.336,122.687 208.5,124.5C 207.021,121.743 207.687,119.743 210.5,118.5 Z"/></g>
<g><path style="opacity:1" fill="#3884a3" d="M 155.5,118.5 C 159.514,118.334 163.514,118.501 167.5,119C 168.931,119.465 170.097,120.299 171,121.5C 172.443,130.392 172.943,139.392 172.5,148.5C 170.179,148.771 168.179,148.104 166.5,146.5C 162.566,149.203 158.232,150.036 153.5,149C 147.642,144.837 146.976,139.837 151.5,134C 156.164,131.418 161.164,130.251 166.5,130.5C 166.838,127.843 166.171,125.51 164.5,123.5C 159.952,122.812 155.452,122.479 151,122.5C 150.383,121.551 150.549,120.718 151.5,120C 153.058,119.79 154.391,119.29 155.5,118.5 Z"/></g>
<g><path style="opacity:1" fill="#3f87a4" d="M 52.5,117.5 C 54.7645,117.441 55.0978,118.274 53.5,120C 53.9054,120.945 54.572,121.612 55.5,122C 67.7457,122.962 79.9123,122.462 92,120.5C 94.3899,121.278 96.5566,122.445 98.5,124C 83.2995,127.738 67.9662,128.405 52.5,126C 50.246,125.376 48.5794,124.043 47.5,122C 49.0632,120.264 50.7299,118.764 52.5,117.5 Z"/></g>
<g><path style="opacity:1" fill="#3883a3" d="M 176.5,118.5 C 178.833,118.5 181.167,118.5 183.5,118.5C 185.964,126.349 188.13,134.349 190,142.5C 193.404,134.887 195.571,126.887 196.5,118.5C 198.5,118.5 200.5,118.5 202.5,118.5C 201.065,128.572 198.232,138.239 194,147.5C 191.281,148.444 188.448,148.777 185.5,148.5C 182.504,138.512 179.504,128.512 176.5,118.5 Z"/></g>
<g><path style="opacity:1" fill="#f7fafb" d="M 159.5,134.5 C 161.833,134.5 164.167,134.5 166.5,134.5C 168.147,142.849 164.814,146.016 156.5,144C 154.603,139.828 155.603,136.662 159.5,134.5 Z"/></g>
<g><path style="opacity:1" fill="#f3f8f9" d="M 216.5,134.5 C 218.833,134.5 221.167,134.5 223.5,134.5C 225.147,142.849 221.814,146.016 213.5,144C 211.327,142.135 210.993,139.969 212.5,137.5C 213.901,136.479 215.235,135.479 216.5,134.5 Z"/></g>
<g><path style="opacity:1" fill="#3783a3" d="M 54.5,132.5 C 55.9221,132.75 56.9221,133.583 57.5,135C 67.7002,137.072 77.8668,136.906 88,134.5C 90.8192,134.993 93.3192,136.16 95.5,138C 84.8513,142.02 73.8513,143.353 62.5,142C 58.5995,141.324 55.0995,139.824 52,137.5C 51.2938,135.045 52.1271,133.378 54.5,132.5 Z"/></g>
<g><path style="opacity:1" fill="#3b85a4" d="M 38.5,141.5 C 40.8568,141.337 43.1902,141.503 45.5,142C 42.2464,142.25 39.2464,143.25 36.5,145C 35.6634,146.011 35.33,147.178 35.5,148.5C 40.0577,149.821 44.7243,150.654 49.5,151C 64.1667,151.667 78.8333,151.667 93.5,151C 100.674,150.565 107.674,149.232 114.5,147C 115.967,145.902 116.801,144.402 117,142.5C 118.365,143.593 118.699,144.926 118,146.5C 109.919,151.376 101.086,153.876 91.5,154C 72.7944,156.11 54.1277,155.776 35.5,153C 31.7167,153.222 28.7167,151.888 26.5,149C 26.7591,147.739 27.4258,146.739 28.5,146C 31.8932,144.38 35.2265,142.88 38.5,141.5 Z"/></g>
<g><path style="opacity:1" fill="#4085a1" d="M 123.5,149.5 C 123.517,152.395 121.85,154.562 118.5,156C 110.999,158.417 103.333,160.084 95.5,161C 82.1667,161.667 68.8333,161.667 55.5,161C 52.7679,160.587 50.1013,159.92 47.5,159C 68.2671,160.33 88.9337,159.33 109.5,156C 113.5,154.667 117.5,153.333 121.5,152C 122.381,151.292 123.047,150.458 123.5,149.5 Z"/></g>
</svg>
