<?xml version="1.0" standalone="no"?>
<!DOCTYPE svg PUBLIC "-//W3C//DTD SVG 20010904//EN"
 "http://www.w3.org/TR/2001/REC-SVG-20010904/DTD/svg10.dtd">
<svg version="1.0" xmlns="http://www.w3.org/2000/svg"
 width="100.000000pt" height="100.000000pt" viewBox="0 0 225.000000 225.000000"
 preserveAspectRatio="xMidYMid meet">

<g transform="translate(0.000000,225.000000) scale(0.100000,-0.100000)"
fill="#000000" stroke="none">
<path d="M109 2223 c-45 -23 -59 -37 -81 -82 l-28 -55 0 -761 0 -761 28 -55
c22 -45 36 -59 81 -82 l55 -27 296 0 297 0 12 -112 c7 -62 18 -131 24 -153 15
-51 71 -107 123 -123 31 -9 189 -12 606 -12 l564 0 55 28 c45 22 59 36 81 81
l28 55 0 761 0 761 -27 55 c-23 45 -37 59 -82 82 l-55 27 -492 0 -492 0 -6 38
c-3 20 -11 78 -17 127 -6 50 -20 106 -30 126 -23 47 -69 85 -117 99 -22 6
-182 10 -403 10 l-365 0 -55 -27z m810 -122 c11 -11 22 -35 25 -53 9 -49 186
-1485 186 -1503 0 -13 -57 -15 -479 -15 l-480 0 -20 26 c-21 26 -21 33 -21
771 l0 744 25 24 24 25 361 0 c343 0 361 -1 379 -19z m1180 -407 c21 -26 21
-33 21 -771 l0 -744 -25 -24 -24 -25 -531 0 c-408 0 -529 3 -524 12 4 6 63 76
131 155 88 102 123 150 123 169 0 14 -34 295 -75 624 -41 329 -75 606 -75 614
0 14 52 16 479 16 l480 0 20 -26z m-1051 -1311 c-87 -104 -133 -152 -139 -146
-4 5 -10 43 -14 86 l-7 77 87 0 c83 0 87 -1 73 -17z"/>
<path d="M487 1762 c-18 -19 -147 -638 -147 -703 0 -21 7 -42 16 -49 20 -18
71 -17 89 1 8 8 25 66 38 129 l23 115 91 3 91 3 10 -48 c6 -26 16 -76 23 -111
6 -35 19 -73 29 -84 21 -27 66 -26 93 1 l22 21 -70 352 c-50 253 -75 358 -87
370 -26 26 -198 26 -221 0z m128 -134 c11 -46 45 -221 45 -229 0 -5 -29 -9
-63 -9 l-64 0 26 130 c16 85 30 130 38 130 7 0 15 -10 18 -22z"/>
<path d="M1610 1370 c-14 -14 -20 -33 -20 -65 l0 -45 -99 0 c-55 0 -111 -4
-126 -10 -56 -21 -52 -105 6 -117 21 -4 34 -14 41 -32 31 -76 83 -176 115
-218 l36 -47 -39 -33 c-21 -19 -58 -48 -82 -65 -23 -18 -45 -43 -49 -56 -13
-53 40 -98 90 -74 12 5 55 37 95 71 l73 62 87 -70 c92 -75 125 -86 155 -53 10
10 17 32 17 49 0 26 -10 39 -62 81 -111 88 -108 79 -50 165 27 41 62 107 77
146 23 58 32 71 50 71 50 0 73 71 34 106 -17 16 -40 20 -130 22 l-109 4 0 39
c0 72 -66 113 -110 69z m150 -244 c0 -30 -92 -186 -110 -186 -12 0 -87 128
-95 163 l-7 27 106 0 c58 0 106 -2 106 -4z"/>
</g>
</svg>
