<?xml version="1.0" encoding="UTF-8"?>
<!DOCTYPE svg PUBLIC "-//W3C//DTD SVG 1.1//EN" "http://www.w3.org/Graphics/SVG/1.1/DTD/svg11.dtd">
<svg xmlns="http://www.w3.org/2000/svg" version="1.1" width="300px" height="300px" style="shape-rendering:geometricPrecision; text-rendering:geometricPrecision; image-rendering:optimizeQuality; fill-rule:evenodd; clip-rule:evenodd" xmlns:xlink="http://www.w3.org/1999/xlink">
<g><path style="opacity:0.999" fill="#4378a0" d="M 134.5,-0.5 C 144.5,-0.5 154.5,-0.5 164.5,-0.5C 228.129,8.95506 270.962,43.9551 293,104.5C 295.894,114.482 298.061,124.482 299.5,134.5C 299.5,144.5 299.5,154.5 299.5,164.5C 290.045,228.129 255.045,270.962 194.5,293C 184.518,295.894 174.518,298.061 164.5,299.5C 154.5,299.5 144.5,299.5 134.5,299.5C 70.871,290.045 28.0377,255.045 6,194.5C 3.10572,184.518 0.939051,174.518 -0.5,164.5C -0.5,154.5 -0.5,144.5 -0.5,134.5C 8.95506,70.871 43.9551,28.0377 104.5,6C 114.482,3.10572 124.482,0.939051 134.5,-0.5 Z"/></g>
<g><path style="opacity:1" fill="#f4f7f9" d="M 172.5,61.5 C 182.254,65.5247 192.254,69.0247 202.5,72C 210.333,77.1667 216.833,83.6667 222,91.5C 225.333,98.8333 228.667,106.167 232,113.5C 240.671,117.519 248.171,123.019 254.5,130C 250.179,131.166 245.845,132.333 241.5,133.5C 247.06,137.125 252.06,141.458 256.5,146.5C 256.333,146.833 256.167,147.167 256,147.5C 249.828,143.748 243.828,139.748 238,135.5C 236.632,134.007 236.465,132.507 237.5,131C 241.347,129.384 245.347,128.384 249.5,128C 243.585,122.875 236.918,119.042 229.5,116.5C 225.394,108.622 221.561,100.622 218,92.5C 210.303,79.7984 199.137,72.2984 184.5,70C 180.856,67.3441 176.856,65.5107 172.5,64.5C 172.353,68.5357 173.853,71.8691 177,74.5C 179.257,81.2274 182.257,87.5607 186,93.5C 185.698,98.3068 185.198,103.14 184.5,108C 184.014,113.209 185.514,117.709 189,121.5C 189.307,116.577 190.973,112.244 194,108.5C 196.867,115.073 200.367,121.239 204.5,127C 199.421,124.91 195.921,121.076 194,115.5C 193.667,117.5 193.333,119.5 193,121.5C 190.525,125.405 187.858,125.405 185,121.5C 180.534,113.075 180.367,104.575 184.5,96C 180.004,90.1944 176.837,83.6944 175,76.5C 170.797,73.1006 169.13,68.7672 170,63.5C 170.995,62.9341 171.828,62.2674 172.5,61.5 Z"/></g>
<g><path style="opacity:1" fill="#f0f4f7" d="M 186.5,77.5 C 188.153,76.2006 189.653,76.5339 191,78.5C 191.699,80.0738 191.365,81.4071 190,82.5C 189.777,80.1192 188.61,78.4525 186.5,77.5 Z"/></g>
<g><path style="opacity:1" fill="#fafbfc" d="M 45.5,145.5 C 49.1667,145.5 52.8333,145.5 56.5,145.5C 59.6208,157.697 63.4542,169.697 68,181.5C 72.1424,169.574 75.9757,157.574 79.5,145.5C 83.1667,145.5 86.8333,145.5 90.5,145.5C 91.9425,162.138 92.9425,178.804 93.5,195.5C 90.8333,195.5 88.1667,195.5 85.5,195.5C 85.2396,182.468 84.4063,169.468 83,156.5C 78.8022,168.76 74.8022,181.094 71,193.5C 68.8938,195.291 66.3938,195.958 63.5,195.5C 59.7905,182.32 55.6238,169.32 51,156.5C 49.9646,169.481 49.4646,182.481 49.5,195.5C 46.8333,195.5 44.1667,195.5 41.5,195.5C 42.0366,178.764 43.37,162.097 45.5,145.5 Z"/></g>
<g><path style="opacity:1" fill="#e9882b" d="M 144.5,145.5 C 148.846,145.334 153.179,145.501 157.5,146C 159.779,146.473 161.779,147.473 163.5,149C 162.845,150.487 161.845,151.653 160.5,152.5C 155.094,149.517 149.927,149.85 145,153.5C 142.749,157.666 143.583,161.166 147.5,164C 151.833,166.333 156.167,168.667 160.5,171C 169.234,180.595 167.901,188.595 156.5,195C 151.5,195.667 146.5,195.667 141.5,195C 139.126,194.152 137.126,192.819 135.5,191C 135.78,189.605 136.447,188.438 137.5,187.5C 143.732,191.354 149.899,191.354 156,187.5C 158.367,183.001 157.533,179.168 153.5,176C 146.195,173.28 140.362,168.78 136,162.5C 134.604,154.626 137.437,148.959 144.5,145.5 Z"/></g>
<g><path style="opacity:1" fill="#e7882c" d="M 183.5,145.5 C 197.343,142.658 205.843,147.991 209,161.5C 209.968,169.319 209.301,176.986 207,184.5C 205.939,187.562 204.106,190.062 201.5,192C 204.661,193.413 207.661,195.08 210.5,197C 209.458,198.918 208.292,200.751 207,202.5C 201.823,197.148 195.656,195.148 188.5,196.5C 180.704,196.191 175.204,192.524 172,185.5C 167.988,173.661 168.988,162.328 175,151.5C 177.671,149.098 180.505,147.098 183.5,145.5 Z"/></g>
<g><path style="opacity:1" fill="#2274b7" d="M 216.5,145.5 C 216.5,162.167 216.5,178.833 216.5,195.5C 224.5,195.5 232.5,195.5 240.5,195.5C 232.35,196.493 224.017,196.826 215.5,196.5C 215.17,179.325 215.503,162.325 216.5,145.5 Z"/></g>
<g><path style="opacity:1" fill="#ef8927" d="M 216.5,145.5 C 219.167,145.5 221.833,145.5 224.5,145.5C 224.5,160.167 224.5,174.833 224.5,189.5C 229.833,189.5 235.167,189.5 240.5,189.5C 240.5,191.5 240.5,193.5 240.5,195.5C 232.5,195.5 224.5,195.5 216.5,195.5C 216.5,178.833 216.5,162.167 216.5,145.5 Z"/></g>
<g><path style="opacity:1" fill="#e5882e" d="M 224.5,189.5 C 229.305,190.487 234.305,190.821 239.5,190.5C 239.5,191.833 239.5,193.167 239.5,194.5C 232.5,194.5 225.5,194.5 218.5,194.5C 218.5,178.5 218.5,162.5 218.5,146.5C 220.167,146.5 221.833,146.5 223.5,146.5C 223.171,161.01 223.504,175.343 224.5,189.5 Z"/></g>
<g><path style="opacity:1" fill="#4378a2" d="M 184.5,151.5 C 192.261,149.425 197.428,152.092 200,159.5C 202.527,168.847 201.694,177.847 197.5,186.5C 193.685,189.424 189.351,190.258 184.5,189C 182.622,187.457 181.122,185.624 180,183.5C 178.477,175.898 178.144,168.232 179,160.5C 179.837,156.843 181.67,153.843 184.5,151.5 Z"/></g>
<g><path style="opacity:1" fill="#f9fbfc" d="M 97.5,159.5 C 100.287,158.523 103.287,158.19 106.5,158.5C 109.023,168.237 111.856,177.904 115,187.5C 118.586,178.157 120.752,168.49 121.5,158.5C 124.167,158.5 126.833,158.5 129.5,158.5C 127.694,174.411 122.528,189.078 114,202.5C 109.676,207.609 104.342,209.276 98,207.5C 97.51,206.207 97.3433,204.873 97.5,203.5C 100.794,203.741 103.794,202.908 106.5,201C 108.028,199.352 108.695,197.352 108.5,195C 105.911,182.74 102.245,170.906 97.5,159.5 Z"/></g>
<g><path style="opacity:1" fill="#fd8d08" d="M 244.5,190.5 C 245.946,189.387 247.613,189.22 249.5,190C 247.954,191.44 247.121,193.273 247,195.5C 246.95,193.256 246.117,191.589 244.5,190.5 Z"/></g>
<g><path style="opacity:1" fill="#f08b23" d="M 250.5,189.5 C 252.411,189.574 253.578,190.574 254,192.5C 254.368,191.09 255.201,190.09 256.5,189.5C 257.641,191.421 257.808,193.421 257,195.5C 256.526,190.373 255.526,190.373 254,195.5C 252.474,190.373 251.474,190.373 251,195.5C 250.505,193.527 250.338,191.527 250.5,189.5 Z"/></g>
</svg>
