<?xml version="1.0" encoding="UTF-8"?>
<!DOCTYPE svg PUBLIC "-//W3C//DTD SVG 1.1//EN" "http://www.w3.org/Graphics/SVG/1.1/DTD/svg11.dtd">
<svg xmlns="http://www.w3.org/2000/svg" version="1.1" width="185px" height="124px" style="shape-rendering:geometricPrecision; text-rendering:geometricPrecision; image-rendering:optimizeQuality; fill-rule:evenodd; clip-rule:evenodd" xmlns:xlink="http://www.w3.org/1999/xlink">
<g><path style="opacity:1" fill="#11201d" d="M 15.5,-0.5 C 24.5,-0.5 33.5,-0.5 42.5,-0.5C 42.1667,2.5 40.5,4.16667 37.5,4.5C 37.67,5.82207 37.3366,6.98873 36.5,8C 38.3581,10.0241 40.0248,12.1908 41.5,14.5C 39.604,15.4656 37.604,15.7989 35.5,15.5C 35.3766,18.374 34.3766,20.874 32.5,23C 33.624,23.2492 34.624,23.7492 35.5,24.5C 34.3995,26.6416 33.3995,28.8083 32.5,31C 33.0944,31.4643 33.7611,31.631 34.5,31.5C 34.0766,32.2646 33.7432,33.0979 33.5,34C 35.0073,37.0212 36.0073,40.1879 36.5,43.5C 34.8333,43.5 33.1667,43.5 31.5,43.5C 31.5,36.8333 31.5,30.1667 31.5,23.5C 28.8333,23.5 26.1667,23.5 23.5,23.5C 22.9965,27.3354 21.9965,27.3354 20.5,23.5C 19.05,27.3642 17.55,27.3642 16,23.5C 15.5003,15.5069 15.3336,7.50694 15.5,-0.5 Z"/></g>
<g><path style="opacity:1" fill="#21230c" d="M 120.5,-0.5 C 130.833,-0.5 141.167,-0.5 151.5,-0.5C 151.5,4.83333 151.5,10.1667 151.5,15.5C 152.5,15.5 153.5,15.5 154.5,15.5C 154.749,19.6205 154.749,23.6205 154.5,27.5C 153.726,28.7112 152.893,28.7112 152,27.5C 149.541,29.2593 147.041,30.926 144.5,32.5C 144.977,33.4776 145.643,34.3109 146.5,35C 150.866,35.3631 155.199,35.3631 159.5,35C 162.028,36.0174 162.028,37.1841 159.5,38.5C 160.689,39.4287 162.022,39.762 163.5,39.5C 163.5,41.5 163.5,43.5 163.5,45.5C 162.022,45.238 160.689,45.5713 159.5,46.5C 164.792,47.4948 170.125,47.8282 175.5,47.5C 175.5,50.5 175.5,53.5 175.5,56.5C 178.167,56.5 180.833,56.5 183.5,56.5C 183.5,58.1667 183.5,59.8333 183.5,61.5C 180.753,61.1866 178.086,61.52 175.5,62.5C 178.428,63.4841 181.428,63.8174 184.5,63.5C 184.5,74.1667 184.5,84.8333 184.5,95.5C 181.5,95.5 178.5,95.5 175.5,95.5C 175.5,90.1667 175.5,84.8333 175.5,79.5C 172.167,79.5 168.833,79.5 165.5,79.5C 165.5,74.1667 165.5,68.8333 165.5,63.5C 160.77,63.7166 156.103,63.3833 151.5,62.5C 151.5,61.8333 151.167,61.5 150.5,61.5C 151.143,57.5669 150.143,54.2336 147.5,51.5C 147.938,51.5654 148.272,51.3988 148.5,51C 147.491,48.8282 145.824,47.6615 143.5,47.5C 143.649,46.448 143.483,45.448 143,44.5C 141.167,43.3333 139.667,41.8333 138.5,40C 140.863,37.4944 142.53,34.6611 143.5,31.5C 142.5,31.5 141.5,31.5 140.5,31.5C 136.167,31.5 131.833,31.5 127.5,31.5C 128.226,29.4301 128.892,27.7634 129.5,26.5C 130.086,26.7093 130.586,27.0426 131,27.5C 134.939,25.6194 139.106,24.4528 143.5,24C 139.641,22.781 135.808,21.6143 132,20.5C 128.854,20.9713 126.021,21.9713 123.5,23.5C 123.5,22.1667 123.5,20.8333 123.5,19.5C 119.818,19.6653 116.152,19.4986 112.5,19C 111.663,17.9887 111.33,16.8221 111.5,15.5C 114.5,15.5 117.5,15.5 120.5,15.5C 120.5,10.1667 120.5,4.83333 120.5,-0.5 Z"/></g>
<g><path style="opacity:1" fill="#272408" d="M 151.5,-0.5 C 162.5,-0.5 173.5,-0.5 184.5,-0.5C 184.5,20.8333 184.5,42.1667 184.5,63.5C 181.428,63.8174 178.428,63.4841 175.5,62.5C 178.086,61.52 180.753,61.1866 183.5,61.5C 183.5,59.8333 183.5,58.1667 183.5,56.5C 180.833,56.5 178.167,56.5 175.5,56.5C 175.5,53.5 175.5,50.5 175.5,47.5C 170.125,47.8282 164.792,47.4948 159.5,46.5C 160.689,45.5713 162.022,45.238 163.5,45.5C 163.5,43.5 163.5,41.5 163.5,39.5C 162.022,39.762 160.689,39.4287 159.5,38.5C 162.028,37.1841 162.028,36.0174 159.5,35C 155.199,35.3631 150.866,35.3631 146.5,35C 145.643,34.3109 144.977,33.4776 144.5,32.5C 147.041,30.926 149.541,29.2593 152,27.5C 152.893,28.7112 153.726,28.7112 154.5,27.5C 154.749,23.6205 154.749,19.6205 154.5,15.5C 153.5,15.5 152.5,15.5 151.5,15.5C 151.5,10.1667 151.5,4.83333 151.5,-0.5 Z"/></g>
<g><path style="opacity:1" fill="#1b221b" d="M 42.5,-0.5 C 51.5,-0.5 60.5,-0.5 69.5,-0.5C 70.0906,0.151487 70.7573,0.818153 71.5,1.5C 69.2632,2.1321 67.5965,3.46543 66.5,5.5C 67.09,6.79892 68.09,7.63225 69.5,8C 66.1832,8.49834 62.8499,8.66501 59.5,8.5C 60.2793,11.0747 60.1127,13.408 59,15.5C 58.6667,14.8333 58.3333,14.1667 58,13.5C 56.5584,18.2359 55.0584,22.9026 53.5,27.5C 54.1556,29.4534 54.4889,31.4534 54.5,33.5C 52.1667,33.5 49.8333,33.5 47.5,33.5C 47.5,34.5 47.5,35.5 47.5,36.5C 44.9544,38.7706 41.9544,39.9372 38.5,40C 37.7089,37.2501 37.7089,34.4168 38.5,31.5C 37.1667,31.5 35.8333,31.5 34.5,31.5C 33.7611,31.631 33.0944,31.4643 32.5,31C 33.3995,28.8083 34.3995,26.6416 35.5,24.5C 34.624,23.7492 33.624,23.2492 32.5,23C 34.3766,20.874 35.3766,18.374 35.5,15.5C 37.604,15.7989 39.604,15.4656 41.5,14.5C 40.0248,12.1908 38.3581,10.0241 36.5,8C 37.3366,6.98873 37.67,5.82207 37.5,4.5C 40.5,4.16667 42.1667,2.5 42.5,-0.5 Z"/></g>
<g><path style="opacity:1" fill="#2d2e30" d="M 69.5,-0.5 C 72.8333,-0.5 76.1667,-0.5 79.5,-0.5C 81.986,3.15069 84.6527,6.65069 87.5,10C 91.1842,9.7612 93.8509,11.2612 95.5,14.5C 94.675,15.3857 93.675,15.719 92.5,15.5C 89.8333,15.5 87.1667,15.5 84.5,15.5C 84.5,13.8333 84.5,12.1667 84.5,10.5C 80.1186,10.3718 75.7853,10.7051 71.5,11.5C 71.6495,10.448 71.4828,9.44802 71,8.5C 70.5,9.66667 69.6667,10.5 68.5,11C 66.1902,11.4966 63.8568,11.6633 61.5,11.5C 61.3505,12.552 61.5172,13.552 62,14.5C 66.7367,13.5308 71.57,13.1975 76.5,13.5C 76.67,14.8221 76.3366,15.9887 75.5,17C 71.8333,17.3333 68.1667,17.6667 64.5,18C 66.4727,18.4955 68.4727,18.6621 70.5,18.5C 70.7852,20.288 70.4519,21.9547 69.5,23.5C 66.2423,22.5827 62.909,22.2493 59.5,22.5C 59.281,23.675 59.6143,24.675 60.5,25.5C 64.4842,24.2301 68.4842,24.2301 72.5,25.5C 70.7608,27.104 68.7608,28.4373 66.5,29.5C 63.0018,28.3299 62.6685,29.1633 65.5,32C 64.5765,33.8114 63.7431,33.6447 63,31.5C 62.0922,33.4386 60.5922,34.4386 58.5,34.5C 54.6331,34.2417 50.9664,34.9084 47.5,36.5C 47.5,35.5 47.5,34.5 47.5,33.5C 49.8333,33.5 52.1667,33.5 54.5,33.5C 54.4889,31.4534 54.1556,29.4534 53.5,27.5C 55.0584,22.9026 56.5584,18.2359 58,13.5C 58.3333,14.1667 58.6667,14.8333 59,15.5C 60.1127,13.408 60.2793,11.0747 59.5,8.5C 62.8499,8.66501 66.1832,8.49834 69.5,8C 68.09,7.63225 67.09,6.79892 66.5,5.5C 67.5965,3.46543 69.2632,2.1321 71.5,1.5C 70.7573,0.818153 70.0906,0.151487 69.5,-0.5 Z"/></g>
<g><path style="opacity:1" fill="#1f2315" d="M 79.5,-0.5 C 93.1667,-0.5 106.833,-0.5 120.5,-0.5C 120.5,4.83333 120.5,10.1667 120.5,15.5C 117.5,15.5 114.5,15.5 111.5,15.5C 111.33,16.8221 111.663,17.9887 112.5,19C 116.152,19.4986 119.818,19.6653 123.5,19.5C 123.5,20.8333 123.5,22.1667 123.5,23.5C 126.021,21.9713 128.854,20.9713 132,20.5C 135.808,21.6143 139.641,22.781 143.5,24C 139.106,24.4528 134.939,25.6194 131,27.5C 130.586,27.0426 130.086,26.7093 129.5,26.5C 128.892,27.7634 128.226,29.4301 127.5,31.5C 121.158,31.3338 114.825,31.5005 108.5,32C 107.347,33.883 105.681,34.7163 103.5,34.5C 99.4202,33.8037 95.4202,32.4704 91.5,30.5C 91.9767,29.5224 92.6433,28.6891 93.5,28C 97.0468,28.0592 100.547,28.2259 104,28.5C 106.279,28.5613 108.279,27.8946 110,26.5C 113.484,27.4291 116.818,27.7624 120,27.5C 120.635,26.0337 121.469,24.7003 122.5,23.5C 121.975,22.8076 121.308,22.3076 120.5,22C 113.45,21.2032 106.45,21.3699 99.5,22.5C 96.4786,20.8119 94.1452,18.4786 92.5,15.5C 93.675,15.719 94.675,15.3857 95.5,14.5C 93.8509,11.2612 91.1842,9.7612 87.5,10C 84.6527,6.65069 81.986,3.15069 79.5,-0.5 Z"/></g>
<g><path style="opacity:1" fill="#1c231d" d="M 92.5,15.5 C 94.1452,18.4786 96.4786,20.8119 99.5,22.5C 106.45,21.3699 113.45,21.2032 120.5,22C 121.308,22.3076 121.975,22.8076 122.5,23.5C 121.469,24.7003 120.635,26.0337 120,27.5C 116.818,27.7624 113.484,27.4291 110,26.5C 108.279,27.8946 106.279,28.5613 104,28.5C 100.547,28.2259 97.0468,28.0592 93.5,28C 92.6433,28.6891 91.9767,29.5224 91.5,30.5C 95.4202,32.4704 99.4202,33.8037 103.5,34.5C 99.8183,34.3347 96.1516,34.5014 92.5,35C 89.7854,35.8747 88.4521,37.7081 88.5,40.5C 85.5176,40.9629 82.5176,41.2962 79.5,41.5C 79.5,39.1667 79.5,36.8333 79.5,34.5C 77.1667,34.5 74.8333,34.5 72.5,34.5C 72.2606,36.4672 72.5939,38.3005 73.5,40C 72.552,40.4828 71.552,40.6495 70.5,40.5C 70.6495,41.552 70.4828,42.552 70,43.5C 67.4794,40.6851 65.8127,41.0184 65,44.5C 64.51,43.2068 64.3433,41.8734 64.5,40.5C 63.0413,40.5674 61.7079,40.2341 60.5,39.5C 60.1667,38.5 59.5,37.8333 58.5,37.5C 58.5,36.5 58.5,35.5 58.5,34.5C 60.5922,34.4386 62.0922,33.4386 63,31.5C 63.7431,33.6447 64.5765,33.8114 65.5,32C 62.6685,29.1633 63.0018,28.3299 66.5,29.5C 68.7608,28.4373 70.7608,27.104 72.5,25.5C 68.4842,24.2301 64.4842,24.2301 60.5,25.5C 59.6143,24.675 59.281,23.675 59.5,22.5C 62.909,22.2493 66.2423,22.5827 69.5,23.5C 70.4519,21.9547 70.7852,20.288 70.5,18.5C 68.4727,18.6621 66.4727,18.4955 64.5,18C 68.1667,17.6667 71.8333,17.3333 75.5,17C 76.3366,15.9887 76.67,14.8221 76.5,13.5C 71.57,13.1975 66.7367,13.5308 62,14.5C 61.5172,13.552 61.3505,12.552 61.5,11.5C 63.8568,11.6633 66.1902,11.4966 68.5,11C 69.6667,10.5 70.5,9.66667 71,8.5C 71.4828,9.44802 71.6495,10.448 71.5,11.5C 75.7853,10.7051 80.1186,10.3718 84.5,10.5C 84.5,12.1667 84.5,13.8333 84.5,15.5C 87.1667,15.5 89.8333,15.5 92.5,15.5 Z"/></g>
<g><path style="opacity:1" fill="#323737" d="M 77.5,18.5 C 81.8333,18.5 86.1667,18.5 90.5,18.5C 90.5,19.8333 90.5,21.1667 90.5,22.5C 92.8333,22.5 95.1667,22.5 97.5,22.5C 97.5,23.8333 97.5,25.1667 97.5,26.5C 91.8552,27.1342 86.1886,27.4676 80.5,27.5C 80.1412,25.2341 80.8078,23.4007 82.5,22C 80.8659,21.5065 79.1992,21.3398 77.5,21.5C 77.5,20.5 77.5,19.5 77.5,18.5 Z"/></g>
<g><path style="opacity:1" fill="#2ca8c7" d="M 58.5,37.5 C 59.5,37.8333 60.1667,38.5 60.5,39.5C 57.4552,39.5079 54.4552,39.8413 51.5,40.5C 51.7845,42.4147 51.4511,44.0813 50.5,45.5C 48.1432,45.6633 45.8098,45.4966 43.5,45C 46.1828,37.6584 51.1828,35.1584 58.5,37.5 Z"/></g>
<g><path style="opacity:1" fill="#262f31" d="M 127.5,31.5 C 131.833,31.5 136.167,31.5 140.5,31.5C 140.586,32.4959 140.252,33.3292 139.5,34C 126.908,35.9126 114.241,37.2459 101.5,38C 99.8446,39.4443 99.178,41.2776 99.5,43.5C 107.643,43.2107 115.309,43.5441 122.5,44.5C 122.5,45.5 122.5,46.5 122.5,47.5C 120.833,47.5 119.167,47.5 117.5,47.5C 117.5,46.1667 116.833,45.5 115.5,45.5C 113.886,47.0746 111.886,47.7413 109.5,47.5C 109.5,48.8333 109.5,50.1667 109.5,51.5C 111.288,51.2148 112.955,51.5481 114.5,52.5C 114.376,53.1067 114.043,53.44 113.5,53.5C 112.081,52.5489 110.415,52.2155 108.5,52.5C 108.768,50.901 108.434,49.5676 107.5,48.5C 105.696,47.838 103.696,47.5046 101.5,47.5C 97.7541,47.3583 94.5874,48.0249 92,49.5C 91.3333,48.8333 90.6667,48.1667 90,47.5C 86.8065,48.9566 83.4732,49.9566 80,50.5C 76.3307,48.9907 74.8307,50.3241 75.5,54.5C 74.1888,52.4402 74.1888,50.2735 75.5,48C 74.2575,47.6886 73.2575,48.1886 72.5,49.5C 70.2712,47.447 67.9379,47.1137 65.5,48.5C 64.6373,50.4214 63.9707,52.4214 63.5,54.5C 62.609,55.1098 61.609,55.4431 60.5,55.5C 61.9582,52.6877 62.9582,49.6877 63.5,46.5C 63.3333,45.1667 63.1667,43.8333 63,42.5C 61.583,41.9221 60.7496,40.9221 60.5,39.5C 61.7079,40.2341 63.0413,40.5674 64.5,40.5C 64.3433,41.8734 64.51,43.2068 65,44.5C 65.8127,41.0184 67.4794,40.6851 70,43.5C 70.4828,42.552 70.6495,41.552 70.5,40.5C 71.552,40.6495 72.552,40.4828 73.5,40C 72.5939,38.3005 72.2606,36.4672 72.5,34.5C 74.8333,34.5 77.1667,34.5 79.5,34.5C 79.5,36.8333 79.5,39.1667 79.5,41.5C 82.5176,41.2962 85.5176,40.9629 88.5,40.5C 88.4521,37.7081 89.7854,35.8747 92.5,35C 96.1516,34.5014 99.8183,34.3347 103.5,34.5C 105.681,34.7163 107.347,33.883 108.5,32C 114.825,31.5005 121.158,31.3338 127.5,31.5 Z"/></g>
<g><path style="opacity:1" fill="#0e1f24" d="M -0.5,-0.5 C 4.83333,-0.5 10.1667,-0.5 15.5,-0.5C 15.3336,7.50694 15.5003,15.5069 16,23.5C 17.55,27.3642 19.05,27.3642 20.5,23.5C 21.9965,27.3354 22.9965,27.3354 23.5,23.5C 26.1667,23.5 28.8333,23.5 31.5,23.5C 31.5,30.1667 31.5,36.8333 31.5,43.5C 33.1667,43.5 34.8333,43.5 36.5,43.5C 36.0073,40.1879 35.0073,37.0212 33.5,34C 33.7432,33.0979 34.0766,32.2646 34.5,31.5C 35.8333,31.5 37.1667,31.5 38.5,31.5C 37.7089,34.4168 37.7089,37.2501 38.5,40C 41.9544,39.9372 44.9544,38.7706 47.5,36.5C 50.9664,34.9084 54.6331,34.2417 58.5,34.5C 58.5,35.5 58.5,36.5 58.5,37.5C 51.1828,35.1584 46.1828,37.6584 43.5,45C 45.8098,45.4966 48.1432,45.6633 50.5,45.5C 48.0122,47.3878 45.0122,48.0545 41.5,47.5C 38.5,48.5 36.5,50.5 35.5,53.5C 33.2468,59.0724 34.7468,63.4057 40,66.5C 41.3102,65.8699 42.1435,64.8699 42.5,63.5C 43.4884,62.205 44.4884,60.8717 45.5,59.5C 47.2879,58.6396 48.9545,57.6396 50.5,56.5C 53.3854,56.8064 56.0521,56.4731 58.5,55.5C 59.1667,55.5 59.8333,55.5 60.5,55.5C 60.3893,56.1174 60.056,56.6174 59.5,57C 55.7897,57.8947 52.123,58.8947 48.5,60C 46.9371,60.7589 45.9371,61.9256 45.5,63.5C 42.8333,66.8333 42.8333,70.1667 45.5,73.5C 45.5569,74.609 45.8902,75.609 46.5,76.5C 45.596,77.209 45.2627,78.209 45.5,79.5C 43.8333,79.5 42.1667,79.5 40.5,79.5C 40.8511,77.1305 41.0178,74.7972 41,72.5C 39.9887,71.6634 38.8221,71.33 37.5,71.5C 37.3343,75.8461 37.501,80.1794 38,84.5C 39.4733,86.0071 41.3066,86.6738 43.5,86.5C 45.8782,85.9888 48.2115,85.3221 50.5,84.5C 52.9818,84.1104 54.3152,85.1104 54.5,87.5C 53.2241,88.3864 53.2241,89.3864 54.5,90.5C 58.0526,90.8865 61.3859,91.8865 64.5,93.5C 65.086,93.2907 65.586,92.9574 66,92.5C 66.985,93.8141 68.1516,94.8141 69.5,95.5C 68.1529,96.1712 66.9862,96.1712 66,95.5C 65.5,96 65,96.5 64.5,97C 68.0847,98.6026 68.418,100.769 65.5,103.5C 64.914,103.291 64.414,102.957 64,102.5C 63.502,105.482 63.3354,108.482 63.5,111.5C 60.7531,111.187 58.0865,111.52 55.5,112.5C 56.1805,114.889 57.0138,117.222 58,119.5C 57.5316,112.925 58.5316,112.925 61,119.5C 62.0113,118.663 63.1779,118.33 64.5,118.5C 65.9191,118.639 67.2524,119.139 68.5,120C 67.0267,120.71 66.3601,121.876 66.5,123.5C 54.8333,123.5 43.1667,123.5 31.5,123.5C 30.6374,114.069 30.6374,104.735 31.5,95.5C 29.3867,96.2563 27.3867,96.4229 25.5,96C 27.5311,97.6099 27.5311,99.4432 25.5,101.5C 25.6799,102.554 26.0133,103.554 26.5,104.5C 24.604,105.466 22.604,105.799 20.5,105.5C 20.2267,103.549 20.8934,102.049 22.5,101C 21.09,100.632 20.09,99.7989 19.5,98.5C 20.1468,92.4895 20.1468,86.6561 19.5,81C 18.4366,79.8118 17.1033,79.3118 15.5,79.5C 15.5,78.1667 15.5,76.8333 15.5,75.5C 10.1667,75.5 4.83333,75.5 -0.5,75.5C -0.5,50.1667 -0.5,24.8333 -0.5,-0.5 Z"/></g>
<g><path style="opacity:1" fill="#1d2217" d="M 140.5,31.5 C 141.5,31.5 142.5,31.5 143.5,31.5C 142.53,34.6611 140.863,37.4944 138.5,40C 139.667,41.8333 141.167,43.3333 143,44.5C 143.483,45.448 143.649,46.448 143.5,47.5C 145.824,47.6615 147.491,48.8282 148.5,51C 148.272,51.3988 147.938,51.5654 147.5,51.5C 145.208,51.2436 143.041,51.5769 141,52.5C 140.501,56.4862 140.334,60.4862 140.5,64.5C 140.565,64.9382 140.399,65.2716 140,65.5C 139.487,64.4734 138.987,63.4734 138.5,62.5C 138.893,59.0703 138.227,55.9036 136.5,53C 132.563,50.5671 129.563,51.4004 127.5,55.5C 126.833,55.5 126.167,55.5 125.5,55.5C 123.927,52.1069 121.26,50.7736 117.5,51.5C 117.5,50.1667 117.5,48.8333 117.5,47.5C 119.167,47.5 120.833,47.5 122.5,47.5C 122.5,46.5 122.5,45.5 122.5,44.5C 115.309,43.5441 107.643,43.2107 99.5,43.5C 99.178,41.2776 99.8446,39.4443 101.5,38C 114.241,37.2459 126.908,35.9126 139.5,34C 140.252,33.3292 140.586,32.4959 140.5,31.5 Z"/></g>
<g><path style="opacity:1" fill="#0f73d8" d="M 60.5,39.5 C 60.7496,40.9221 61.583,41.9221 63,42.5C 63.1667,43.8333 63.3333,45.1667 63.5,46.5C 62.9582,49.6877 61.9582,52.6877 60.5,55.5C 59.8333,55.5 59.1667,55.5 58.5,55.5C 55.1405,56.2096 53.3071,54.8762 53,51.5C 49.4441,49.1728 45.6108,47.8394 41.5,47.5C 45.0122,48.0545 48.0122,47.3878 50.5,45.5C 51.4511,44.0813 51.7845,42.4147 51.5,40.5C 54.4552,39.8413 57.4552,39.5079 60.5,39.5 Z"/></g>
<g><path style="opacity:1" fill="#d4d5cd" d="M 138.5,62.5 C 130.651,67.3554 126.984,65.0221 127.5,55.5C 129.563,51.4004 132.563,50.5671 136.5,53C 138.227,55.9036 138.893,59.0703 138.5,62.5 Z"/></g>
<g><path style="opacity:1" fill="#139be5" d="M 41.5,47.5 C 45.6108,47.8394 49.4441,49.1728 53,51.5C 53.3071,54.8762 55.1405,56.2096 58.5,55.5C 56.0521,56.4731 53.3854,56.8064 50.5,56.5C 50.5,55.1667 50.5,53.8333 50.5,52.5C 46.8759,53.8763 43.3759,55.543 40,57.5C 39.8782,59.1686 40.2115,60.8353 41,62.5C 41.9078,60.5614 43.4078,59.5614 45.5,59.5C 44.4884,60.8717 43.4884,62.205 42.5,63.5C 40.8333,63.5 39.1667,63.5 37.5,63.5C 37.5424,59.9913 36.8758,56.658 35.5,53.5C 36.5,50.5 38.5,48.5 41.5,47.5 Z"/></g>
<g><path style="opacity:1" fill="#181b18" d="M 107.5,48.5 C 106.675,52.6472 106.175,56.9805 106,61.5C 105.23,60.4019 104.397,60.4019 103.5,61.5C 103.852,58.5716 104.518,55.7383 105.5,53C 104.668,52.3123 104.002,52.479 103.5,53.5C 102.803,56.2903 101.803,58.9569 100.5,61.5C 98.8292,58.0764 97.1626,54.7431 95.5,51.5C 95.1667,52 94.8333,52.5 94.5,53C 95.8906,57.1147 97.5573,61.1147 99.5,65C 98.615,67.1566 96.9484,67.9899 94.5,67.5C 93.7611,67.631 93.0944,67.4643 92.5,67C 93.8333,66.6667 95.1667,66.3333 96.5,66C 94.8588,64.871 93.8588,63.371 93.5,61.5C 94.454,53.6175 91.1206,50.4508 83.5,52C 82.5363,56.0659 82.203,60.2325 82.5,64.5C 78.3931,64.3139 77.2264,62.6472 79,59.5C 79.6667,57.1667 79.6667,54.8333 79,52.5C 78.6511,55.7139 77.1511,57.0472 74.5,56.5C 74.8627,55.8165 75.1961,55.1499 75.5,54.5C 74.8307,50.3241 76.3307,48.9907 80,50.5C 83.4732,49.9566 86.8065,48.9566 90,47.5C 90.6667,48.1667 91.3333,48.8333 92,49.5C 94.5874,48.0249 97.7541,47.3583 101.5,47.5C 103.696,47.5046 105.696,47.838 107.5,48.5 Z"/></g>
<g><path style="opacity:1" fill="#181916" d="M 131.5,53.5 C 136.151,54.1742 137.651,56.8408 136,61.5C 132.136,64.4869 129.969,63.4869 129.5,58.5C 129.437,56.4861 130.103,54.8194 131.5,53.5 Z"/></g>
<g><path style="opacity:1" fill="#21221c" d="M 115.5,45.5 C 115.5,52.1667 115.5,58.8333 115.5,65.5C 115.167,65.5 114.833,65.5 114.5,65.5C 114.5,65.1667 114.5,64.8333 114.5,64.5C 112.958,63.8365 111.291,63.1698 109.5,62.5C 108.593,59.5788 108.26,56.5788 108.5,53.5C 110.167,53.5 111.833,53.5 113.5,53.5C 114.043,53.44 114.376,53.1067 114.5,52.5C 112.955,51.5481 111.288,51.2148 109.5,51.5C 109.5,50.1667 109.5,48.8333 109.5,47.5C 111.886,47.7413 113.886,47.0746 115.5,45.5 Z"/></g>
<g><path style="opacity:1" fill="#0b7ade" d="M 50.5,56.5 C 48.9545,57.6396 47.2879,58.6396 45.5,59.5C 43.4078,59.5614 41.9078,60.5614 41,62.5C 40.2115,60.8353 39.8782,59.1686 40,57.5C 43.3759,55.543 46.8759,53.8763 50.5,52.5C 50.5,53.8333 50.5,55.1667 50.5,56.5 Z"/></g>
<g><path style="opacity:1" fill="#1e1e18" d="M 123.5,64.5 C 121.81,64.7583 119.81,64.7583 117.5,64.5C 117.5,60.8333 117.5,57.1667 117.5,53.5C 119.467,53.2606 121.301,53.5939 123,54.5C 123.498,57.8168 123.665,61.1501 123.5,64.5 Z"/></g>
<g><path style="opacity:1" fill="#f7cb12" d="M 68.5,65.5 C 66.5615,67.1628 64.2282,67.8294 61.5,67.5C 59.3926,66.5318 57.0593,66.1984 54.5,66.5C 54.5774,65.2502 55.244,64.4169 56.5,64C 55.0997,62.5619 53.433,61.7286 51.5,61.5C 54.2823,60.067 57.2823,58.9003 60.5,58C 62.0629,57.2411 63.0629,56.0744 63.5,54.5C 66.7373,51.6074 68.7373,52.4407 69.5,57C 68.8524,58.4397 68.5191,59.9397 68.5,61.5C 67.0695,61.5792 65.7362,61.2458 64.5,60.5C 63.5481,62.0453 63.2148,63.712 63.5,65.5C 65.1667,65.5 66.8333,65.5 68.5,65.5 Z"/></g>
<g><path style="opacity:1" fill="#c7cbc7" d="M 103.5,61.5 C 102.547,65.4256 100.213,68.0922 96.5,69.5C 95.2867,69.2528 94.62,68.5862 94.5,67.5C 96.9484,67.9899 98.615,67.1566 99.5,65C 97.5573,61.1147 95.8906,57.1147 94.5,53C 94.8333,52.5 95.1667,52 95.5,51.5C 97.1626,54.7431 98.8292,58.0764 100.5,61.5C 101.803,58.9569 102.803,56.2903 103.5,53.5C 104.002,52.479 104.668,52.3123 105.5,53C 104.518,55.7383 103.852,58.5716 103.5,61.5 Z"/></g>
<g><path style="opacity:1" fill="#f5f6ef" d="M 107.5,48.5 C 108.434,49.5676 108.768,50.901 108.5,52.5C 110.415,52.2155 112.081,52.5489 113.5,53.5C 111.833,53.5 110.167,53.5 108.5,53.5C 108.26,56.5788 108.593,59.5788 109.5,62.5C 111.291,63.1698 112.958,63.8365 114.5,64.5C 112.208,64.7564 110.041,64.4231 108,63.5C 107.501,58.5111 107.334,53.5111 107.5,48.5 Z"/></g>
<g><path style="opacity:1" fill="#d2d3c8" d="M 147.5,51.5 C 150.143,54.2336 151.143,57.5669 150.5,61.5C 150.719,62.675 150.386,63.675 149.5,64.5C 148.76,61.1637 148.094,57.8304 147.5,54.5C 145.955,53.5481 144.288,53.2148 142.5,53.5C 143.08,57.649 142.414,61.3157 140.5,64.5C 140.334,60.4862 140.501,56.4862 141,52.5C 143.041,51.5769 145.208,51.2436 147.5,51.5 Z"/></g>
<g><path style="opacity:1" fill="#ecd72a" d="M 65.5,48.5 C 73.2948,51.0981 75.2948,56.0981 71.5,63.5C 70.6431,64.4252 69.6431,65.0919 68.5,65.5C 66.8333,65.5 65.1667,65.5 63.5,65.5C 63.2148,63.712 63.5481,62.0453 64.5,60.5C 65.7362,61.2458 67.0695,61.5792 68.5,61.5C 68.5191,59.9397 68.8524,58.4397 69.5,57C 68.7373,52.4407 66.7373,51.6074 63.5,54.5C 63.9707,52.4214 64.6373,50.4214 65.5,48.5 Z"/></g>
<g><path style="opacity:1" fill="#faad1d" d="M 51.5,61.5 C 53.433,61.7286 55.0997,62.5619 56.5,64C 55.244,64.4169 54.5774,65.2502 54.5,66.5C 51.8333,66.5 49.1667,66.5 46.5,66.5C 46.5,65.5 46.5,64.5 46.5,63.5C 48.698,63.8799 50.3646,63.2132 51.5,61.5 Z"/></g>
<g><path style="opacity:1" fill="#dcdcd4" d="M 115.5,45.5 C 116.833,45.5 117.5,46.1667 117.5,47.5C 117.5,48.8333 117.5,50.1667 117.5,51.5C 121.26,50.7736 123.927,52.1069 125.5,55.5C 126.055,59.0122 125.388,62.0122 123.5,64.5C 123.665,61.1501 123.498,57.8168 123,54.5C 121.301,53.5939 119.467,53.2606 117.5,53.5C 117.5,57.1667 117.5,60.8333 117.5,64.5C 117.158,65.3382 116.492,65.6716 115.5,65.5C 115.5,58.8333 115.5,52.1667 115.5,45.5 Z"/></g>
<g><path style="opacity:1" fill="#2baecc" d="M 35.5,53.5 C 36.8758,56.658 37.5424,59.9913 37.5,63.5C 39.1667,63.5 40.8333,63.5 42.5,63.5C 42.1435,64.8699 41.3102,65.8699 40,66.5C 34.7468,63.4057 33.2468,59.0724 35.5,53.5 Z"/></g>
<g><path style="opacity:1" fill="#d2d6d0" d="M 93.5,61.5 C 91.6912,65.2985 88.8579,66.2985 85,64.5C 84.7978,66.2556 84.2978,67.9223 83.5,69.5C 82.8933,69.3764 82.56,69.0431 82.5,68.5C 82.5,67.1667 82.5,65.8333 82.5,64.5C 82.203,60.2325 82.5363,56.0659 83.5,52C 91.1206,50.4508 94.454,53.6175 93.5,61.5 Z"/></g>
<g><path style="opacity:1" fill="#171b18" d="M 84.5,53.5 C 91.1983,53.216 93.1983,56.216 90.5,62.5C 88.6293,63.767 86.7959,63.767 85,62.5C 84.502,59.5184 84.3354,56.5184 84.5,53.5 Z"/></g>
<g><path style="opacity:1" fill="#2e3020" d="M 150.5,61.5 C 151.167,61.5 151.5,61.8333 151.5,62.5C 151.5,63.5 151.5,64.5 151.5,65.5C 148.567,66.128 145.567,67.128 142.5,68.5C 139.433,68.1205 138.433,69.1205 139.5,71.5C 137.153,73.044 134.486,73.7107 131.5,73.5C 127.339,73.1006 123.339,72.1006 119.5,70.5C 116.834,71.7378 114.168,71.7378 111.5,70.5C 111.784,68.2406 112.784,66.5739 114.5,65.5C 114.833,65.5 115.167,65.5 115.5,65.5C 116.492,65.6716 117.158,65.3382 117.5,64.5C 119.81,64.7583 121.81,64.7583 123.5,64.5C 125.388,62.0122 126.055,59.0122 125.5,55.5C 126.167,55.5 126.833,55.5 127.5,55.5C 126.984,65.0221 130.651,67.3554 138.5,62.5C 138.987,63.4734 139.487,64.4734 140,65.5C 140.399,65.2716 140.565,64.9382 140.5,64.5C 142.414,61.3157 143.08,57.649 142.5,53.5C 144.288,53.2148 145.955,53.5481 147.5,54.5C 148.094,57.8304 148.76,61.1637 149.5,64.5C 150.386,63.675 150.719,62.675 150.5,61.5 Z"/></g>
<g><path style="opacity:1" fill="#ad953f" d="M 45.5,63.5 C 45.5,66.8333 45.5,70.1667 45.5,73.5C 42.8333,70.1667 42.8333,66.8333 45.5,63.5 Z"/></g>
<g><path style="opacity:1" fill="#1e210f" d="M 151.5,62.5 C 156.103,63.3833 160.77,63.7166 165.5,63.5C 165.5,68.8333 165.5,74.1667 165.5,79.5C 168.833,79.5 172.167,79.5 175.5,79.5C 175.5,84.8333 175.5,90.1667 175.5,95.5C 178.5,95.5 181.5,95.5 184.5,95.5C 184.5,104.833 184.5,114.167 184.5,123.5C 176.167,123.5 167.833,123.5 159.5,123.5C 159.5,114.167 159.5,104.833 159.5,95.5C 157.5,95.5 155.5,95.5 153.5,95.5C 153.219,93.0372 152.219,90.8705 150.5,89C 151.634,87.984 151.301,87.3173 149.5,87C 151.784,85.6371 151.951,84.1371 150,82.5C 149.013,86.7668 148.179,87.1002 147.5,83.5C 141.811,83.2556 136.144,82.0889 130.5,80C 133.146,79.5026 135.813,79.3359 138.5,79.5C 138.262,75.9007 139.262,75.5673 141.5,78.5C 142.086,78.2907 142.586,77.9574 143,77.5C 143.634,74.4453 143.468,71.4453 142.5,68.5C 145.567,67.128 148.567,66.128 151.5,65.5C 151.5,64.5 151.5,63.5 151.5,62.5 Z"/></g>
<g><path style="opacity:1" fill="#dcb031" d="M 63.5,54.5 C 63.0629,56.0744 62.0629,57.2411 60.5,58C 57.2823,58.9003 54.2823,60.067 51.5,61.5C 50.3646,63.2132 48.698,63.8799 46.5,63.5C 46.5,64.5 46.5,65.5 46.5,66.5C 49.1667,66.5 51.8333,66.5 54.5,66.5C 57.0593,66.1984 59.3926,66.5318 61.5,67.5C 59.396,67.2011 57.396,67.5344 55.5,68.5C 58.0865,69.48 60.7531,69.8134 63.5,69.5C 63.7373,70.791 63.404,71.791 62.5,72.5C 61.0821,70.6921 59.0821,70.0254 56.5,70.5C 54.6801,69.2726 52.6801,68.2726 50.5,67.5C 47.0569,67.7213 46.7236,68.7213 49.5,70.5C 48.6171,71.548 47.9504,72.7147 47.5,74C 47.8361,75.0299 48.5028,75.5299 49.5,75.5C 49.8333,76.1667 50.1667,76.8333 50.5,77.5C 49.1667,77.1667 47.8333,76.8333 46.5,76.5C 45.8902,75.609 45.5569,74.609 45.5,73.5C 45.5,70.1667 45.5,66.8333 45.5,63.5C 45.9371,61.9256 46.9371,60.7589 48.5,60C 52.123,58.8947 55.7897,57.8947 59.5,57C 60.056,56.6174 60.3893,56.1174 60.5,55.5C 61.609,55.4431 62.609,55.1098 63.5,54.5 Z"/></g>
<g><path style="opacity:1" fill="#f6cc10" d="M 56.5,70.5 C 56.7512,72.1703 57.4178,73.6703 58.5,75C 57.9056,75.4643 57.2389,75.631 56.5,75.5C 56.5852,74.0047 55.9185,73.0047 54.5,72.5C 53.4376,73.4246 53.4376,74.4246 54.5,75.5C 52.8333,75.5 51.1667,75.5 49.5,75.5C 48.5028,75.5299 47.8361,75.0299 47.5,74C 47.9504,72.7147 48.6171,71.548 49.5,70.5C 46.7236,68.7213 47.0569,67.7213 50.5,67.5C 52.6801,68.2726 54.6801,69.2726 56.5,70.5 Z"/></g>
<g><path style="opacity:1" fill="#212e2d" d="M 107.5,48.5 C 107.334,53.5111 107.501,58.5111 108,63.5C 110.041,64.4231 112.208,64.7564 114.5,64.5C 114.5,64.8333 114.5,65.1667 114.5,65.5C 112.784,66.5739 111.784,68.2406 111.5,70.5C 114.168,71.7378 116.834,71.7378 119.5,70.5C 123.339,72.1006 127.339,73.1006 131.5,73.5C 134.486,73.7107 137.153,73.044 139.5,71.5C 139.586,72.4959 139.252,73.3292 138.5,74C 124.238,76.0172 109.905,76.8505 95.5,76.5C 95.5,77.5 95.5,78.5 95.5,79.5C 92.4816,79.6646 89.4816,79.498 86.5,79C 85.3333,78.5 84.5,77.6667 84,76.5C 82.4126,77.727 81.0793,77.3937 80,75.5C 79.6232,76.9423 78.7899,77.9423 77.5,78.5C 76.5041,78.4142 75.6708,78.7476 75,79.5C 74.5172,78.552 74.3505,77.552 74.5,76.5C 75.0065,75.1411 76.0065,74.1411 77.5,73.5C 75.604,72.5344 73.604,72.2011 71.5,72.5C 71.5,71.5 71.5,70.5 71.5,69.5C 75.1185,68.7564 78.7852,68.423 82.5,68.5C 82.56,69.0431 82.8933,69.3764 83.5,69.5C 84.2978,67.9223 84.7978,66.2556 85,64.5C 88.8579,66.2985 91.6912,65.2985 93.5,61.5C 93.8588,63.371 94.8588,64.871 96.5,66C 95.1667,66.3333 93.8333,66.6667 92.5,67C 93.0944,67.4643 93.7611,67.631 94.5,67.5C 94.62,68.5862 95.2867,69.2528 96.5,69.5C 100.213,68.0922 102.547,65.4256 103.5,61.5C 104.397,60.4019 105.23,60.4019 106,61.5C 106.175,56.9805 106.675,52.6472 107.5,48.5 Z"/></g>
<g><path style="opacity:1" fill="#996513" d="M 56.5,75.5 C 55.8333,75.5 55.1667,75.5 54.5,75.5C 53.4376,74.4246 53.4376,73.4246 54.5,72.5C 55.9185,73.0047 56.5852,74.0047 56.5,75.5 Z"/></g>
<g><path style="opacity:1" fill="#e2d92d" d="M 56.5,70.5 C 59.0821,70.0254 61.0821,70.6921 62.5,72.5C 61.853,74.1405 60.853,75.4739 59.5,76.5C 56.7327,78.5167 53.7327,78.8501 50.5,77.5C 50.1667,76.8333 49.8333,76.1667 49.5,75.5C 51.1667,75.5 52.8333,75.5 54.5,75.5C 55.1667,75.5 55.8333,75.5 56.5,75.5C 57.2389,75.631 57.9056,75.4643 58.5,75C 57.4178,73.6703 56.7512,72.1703 56.5,70.5 Z"/></g>
<g><path style="opacity:1" fill="#1e2217" d="M 65.5,48.5 C 67.9379,47.1137 70.2712,47.447 72.5,49.5C 73.2575,48.1886 74.2575,47.6886 75.5,48C 74.1888,50.2735 74.1888,52.4402 75.5,54.5C 75.1961,55.1499 74.8627,55.8165 74.5,56.5C 77.1511,57.0472 78.6511,55.7139 79,52.5C 79.6667,54.8333 79.6667,57.1667 79,59.5C 77.2264,62.6472 78.3931,64.3139 82.5,64.5C 82.5,65.8333 82.5,67.1667 82.5,68.5C 78.7852,68.423 75.1185,68.7564 71.5,69.5C 71.5,70.5 71.5,71.5 71.5,72.5C 73.604,72.2011 75.604,72.5344 77.5,73.5C 76.0065,74.1411 75.0065,75.1411 74.5,76.5C 70.126,76.029 66.126,77.029 62.5,79.5C 62.1667,79.3333 61.8333,79.1667 61.5,79C 63.0074,78.1627 63.5074,76.9961 63,75.5C 61.9887,76.3366 60.8221,76.67 59.5,76.5C 60.853,75.4739 61.853,74.1405 62.5,72.5C 63.404,71.791 63.7373,70.791 63.5,69.5C 60.7531,69.8134 58.0865,69.48 55.5,68.5C 57.396,67.5344 59.396,67.2011 61.5,67.5C 64.2282,67.8294 66.5615,67.1628 68.5,65.5C 69.6431,65.0919 70.6431,64.4252 71.5,63.5C 75.2948,56.0981 73.2948,51.0981 65.5,48.5 Z"/></g>
<g><path style="opacity:1" fill="#081e27" d="M -0.5,75.5 C 4.83333,75.5 10.1667,75.5 15.5,75.5C 15.5,76.8333 15.5,78.1667 15.5,79.5C 17.1033,79.3118 18.4366,79.8118 19.5,81C 20.1468,86.6561 20.1468,92.4895 19.5,98.5C 20.09,99.7989 21.09,100.632 22.5,101C 20.8934,102.049 20.2267,103.549 20.5,105.5C 22.604,105.799 24.604,105.466 26.5,104.5C 26.0133,103.554 25.6799,102.554 25.5,101.5C 27.5311,99.4432 27.5311,97.6099 25.5,96C 27.3867,96.4229 29.3867,96.2563 31.5,95.5C 30.6374,104.735 30.6374,114.069 31.5,123.5C 20.8333,123.5 10.1667,123.5 -0.5,123.5C -0.5,107.5 -0.5,91.5 -0.5,75.5 Z"/></g>
<g><path style="opacity:1" fill="#10201d" d="M 46.5,76.5 C 47.8333,76.8333 49.1667,77.1667 50.5,77.5C 53.7327,78.8501 56.7327,78.5167 59.5,76.5C 60.8221,76.67 61.9887,76.3366 63,75.5C 63.5074,76.9961 63.0074,78.1627 61.5,79C 61.8333,79.1667 62.1667,79.3333 62.5,79.5C 66.126,77.029 70.126,76.029 74.5,76.5C 74.3505,77.552 74.5172,78.552 75,79.5C 75.6708,78.7476 76.5041,78.4142 77.5,78.5C 80.1078,80.2296 80.1078,82.063 77.5,84C 73.5651,84.0838 69.8984,85.0838 66.5,87C 62.7778,87.2382 59.1111,87.7382 55.5,88.5C 54.8933,88.3764 54.56,88.0431 54.5,87.5C 54.3152,85.1104 52.9818,84.1104 50.5,84.5C 48.2115,85.3221 45.8782,85.9888 43.5,86.5C 41.3066,86.6738 39.4733,86.0071 38,84.5C 37.501,80.1794 37.3343,75.8461 37.5,71.5C 38.8221,71.33 39.9887,71.6634 41,72.5C 41.0178,74.7972 40.8511,77.1305 40.5,79.5C 42.1667,79.5 43.8333,79.5 45.5,79.5C 45.2627,78.209 45.596,77.209 46.5,76.5 Z"/></g>
<g><path style="opacity:1" fill="#1b2216" d="M 142.5,68.5 C 143.468,71.4453 143.634,74.4453 143,77.5C 142.586,77.9574 142.086,78.2907 141.5,78.5C 139.262,75.5673 138.262,75.9007 138.5,79.5C 135.813,79.3359 133.146,79.5026 130.5,80C 136.144,82.0889 141.811,83.2556 147.5,83.5C 148.179,87.1002 149.013,86.7668 150,82.5C 151.951,84.1371 151.784,85.6371 149.5,87C 151.301,87.3173 151.634,87.984 150.5,89C 152.219,90.8705 153.219,93.0372 153.5,95.5C 155.5,95.5 157.5,95.5 159.5,95.5C 159.5,104.833 159.5,114.167 159.5,123.5C 154.167,123.5 148.833,123.5 143.5,123.5C 143.5,119.5 143.5,115.5 143.5,111.5C 136.833,111.5 130.167,111.5 123.5,111.5C 123.665,108.15 123.498,104.817 123,101.5C 121.632,103.815 120.799,103.815 120.5,101.5C 121.912,98.5968 122.912,95.5968 123.5,92.5C 124.568,91.5655 125.901,91.2322 127.5,91.5C 127.5,89.8333 127.5,88.1667 127.5,86.5C 111.5,87.7105 95.5,89.3771 79.5,91.5C 79.5,92.8333 79.5,94.1667 79.5,95.5C 76.1667,95.5 72.8333,95.5 69.5,95.5C 68.1516,94.8141 66.985,93.8141 66,92.5C 65.586,92.9574 65.086,93.2907 64.5,93.5C 61.3859,91.8865 58.0526,90.8865 54.5,90.5C 53.2241,89.3864 53.2241,88.3864 54.5,87.5C 54.56,88.0431 54.8933,88.3764 55.5,88.5C 59.1111,87.7382 62.7778,87.2382 66.5,87C 69.8984,85.0838 73.5651,84.0838 77.5,84C 80.1078,82.063 80.1078,80.2296 77.5,78.5C 78.7899,77.9423 79.6232,76.9423 80,75.5C 81.0793,77.3937 82.4126,77.727 84,76.5C 84.5,77.6667 85.3333,78.5 86.5,79C 89.4816,79.498 92.4816,79.6646 95.5,79.5C 95.5,78.5 95.5,77.5 95.5,76.5C 109.905,76.8505 124.238,76.0172 138.5,74C 139.252,73.3292 139.586,72.4959 139.5,71.5C 138.433,69.1205 139.433,68.1205 142.5,68.5 Z"/></g>
<g><path style="opacity:1" fill="#1c2a2d" d="M 123.5,92.5 C 121.174,94.4444 118.507,95.7777 115.5,96.5C 113.772,96.5901 112.106,96.9234 110.5,97.5C 109.808,96.9747 109.308,96.3081 109,95.5C 108.333,97.5 107,98.8333 105,99.5C 102.433,98.5161 99.5995,98.1828 96.5,98.5C 94.3015,100.969 92.3015,103.636 90.5,106.5C 93.6465,107.289 96.8132,107.955 100,108.5C 105.629,106.835 111.296,105.168 117,103.5C 117.494,105.134 117.66,106.801 117.5,108.5C 115.5,108.5 113.5,108.5 111.5,108.5C 111.5,109.5 111.5,110.5 111.5,111.5C 107.774,111.177 104.107,111.511 100.5,112.5C 101.325,113.386 102.325,113.719 103.5,113.5C 103.59,118.389 104.756,118.723 107,114.5C 107.609,118.121 109.109,121.121 111.5,123.5C 96.5,123.5 81.5,123.5 66.5,123.5C 66.3601,121.876 67.0267,120.71 68.5,120C 67.2524,119.139 65.9191,118.639 64.5,118.5C 65.449,116.263 66.1156,113.929 66.5,111.5C 69.1873,111.664 71.854,111.497 74.5,111C 73.5,110.667 72.5,110.333 71.5,110C 74.2241,109.73 76.8908,109.23 79.5,108.5C 80.5976,112.361 81.4309,112.361 82,108.5C 82.3333,110.167 82.6667,111.833 83,113.5C 83.7517,110.106 83.5851,106.773 82.5,103.5C 84.8745,101.461 86.8745,99.1277 88.5,96.5C 85.5719,95.5159 82.5719,95.1826 79.5,95.5C 79.5,94.1667 79.5,92.8333 79.5,91.5C 95.5,89.3771 111.5,87.7105 127.5,86.5C 127.5,88.1667 127.5,89.8333 127.5,91.5C 125.901,91.2322 124.568,91.5655 123.5,92.5 Z"/></g>
<g><path style="opacity:1" fill="#19241f" d="M 123.5,92.5 C 122.912,95.5968 121.912,98.5968 120.5,101.5C 120.799,103.815 121.632,103.815 123,101.5C 123.498,104.817 123.665,108.15 123.5,111.5C 130.167,111.5 136.833,111.5 143.5,111.5C 143.5,115.5 143.5,119.5 143.5,123.5C 132.833,123.5 122.167,123.5 111.5,123.5C 109.109,121.121 107.609,118.121 107,114.5C 104.756,118.723 103.59,118.389 103.5,113.5C 102.325,113.719 101.325,113.386 100.5,112.5C 104.107,111.511 107.774,111.177 111.5,111.5C 111.5,110.5 111.5,109.5 111.5,108.5C 113.5,108.5 115.5,108.5 117.5,108.5C 117.66,106.801 117.494,105.134 117,103.5C 111.296,105.168 105.629,106.835 100,108.5C 96.8132,107.955 93.6465,107.289 90.5,106.5C 92.3015,103.636 94.3015,100.969 96.5,98.5C 99.5995,98.1828 102.433,98.5161 105,99.5C 107,98.8333 108.333,97.5 109,95.5C 109.308,96.3081 109.808,96.9747 110.5,97.5C 112.106,96.9234 113.772,96.5901 115.5,96.5C 118.507,95.7777 121.174,94.4444 123.5,92.5 Z"/></g>
<g><path style="opacity:1" fill="#1a2023" d="M 69.5,95.5 C 72.8333,95.5 76.1667,95.5 79.5,95.5C 82.5719,95.1826 85.5719,95.5159 88.5,96.5C 86.8745,99.1277 84.8745,101.461 82.5,103.5C 83.5851,106.773 83.7517,110.106 83,113.5C 82.6667,111.833 82.3333,110.167 82,108.5C 81.4309,112.361 80.5976,112.361 79.5,108.5C 76.8908,109.23 74.2241,109.73 71.5,110C 72.5,110.333 73.5,110.667 74.5,111C 71.854,111.497 69.1873,111.664 66.5,111.5C 66.1156,113.929 65.449,116.263 64.5,118.5C 63.1779,118.33 62.0113,118.663 61,119.5C 58.5316,112.925 57.5316,112.925 58,119.5C 57.0138,117.222 56.1805,114.889 55.5,112.5C 58.0865,111.52 60.7531,111.187 63.5,111.5C 63.3354,108.482 63.502,105.482 64,102.5C 64.414,102.957 64.914,103.291 65.5,103.5C 68.418,100.769 68.0847,98.6026 64.5,97C 65,96.5 65.5,96 66,95.5C 66.9862,96.1712 68.1529,96.1712 69.5,95.5 Z"/></g>
</svg>
