<?xml version="1.0" standalone="no"?>
<!DOCTYPE svg PUBLIC "-//W3C//DTD SVG 20010904//EN"
 "http://www.w3.org/TR/2001/REC-SVG-20010904/DTD/svg10.dtd">
<svg version="1.0" xmlns="http://www.w3.org/2000/svg"
 width="100.000000pt" height="100.000000pt" viewBox="0 0 225.000000 225.000000"
 preserveAspectRatio="xMidYMid meet">

<g transform="translate(0.000000,225.000000) scale(0.100000,-0.100000)"
fill="#000000" stroke="none">
<path d="M1365 2110 c-2 -3 -9 -37 -15 -76 -15 -92 -22 -107 -58 -120 -29 -11
-35 -9 -107 43 l-77 56 -74 -74 c-41 -40 -74 -77 -74 -82 0 -5 23 -41 50 -81
l51 -72 -15 -36 c-15 -35 -18 -37 -88 -48 -118 -19 -108 -7 -108 -129 l0 -108
73 -12 c104 -18 107 -19 123 -57 14 -34 14 -35 -38 -110 l-52 -75 77 -76 76
-77 76 52 c75 51 77 51 110 38 37 -16 39 -20 55 -123 l12 -73 108 0 c123 0
111 -11 131 108 12 70 14 74 48 88 35 15 35 15 107 -36 40 -27 76 -50 81 -50
5 0 42 33 82 74 l74 75 -56 77 -55 77 15 33 c17 35 35 42 156 59 l47 7 0 108
c0 124 10 112 -111 131 -66 10 -78 15 -88 36 -18 39 -14 51 39 126 l50 71 -77
78 c-59 60 -80 75 -92 68 -9 -5 -43 -29 -76 -54 -60 -43 -60 -44 -97 -29 -32
13 -37 19 -43 61 -4 26 -11 67 -16 92 l-10 46 -105 0 c-58 0 -107 -2 -109 -6z
m155 -152 c15 -98 12 -93 61 -107 24 -7 59 -21 77 -32 l34 -19 63 45 c35 25
67 45 71 45 4 0 18 -10 30 -21 l23 -21 -48 -69 -48 -68 28 -57 c16 -31 29 -65
29 -76 0 -22 3 -23 98 -38 l73 -12 -3 -36 -3 -37 -79 -15 -79 -15 -18 -51 c-9
-29 -24 -62 -33 -76 -15 -23 -14 -26 34 -93 l50 -70 -25 -24 -24 -25 -69 48
-68 47 -65 -31 c-35 -16 -69 -30 -76 -30 -13 0 -18 -13 -32 -93 -13 -73 -16
-77 -52 -77 -34 0 -34 0 -49 96 l-11 71 -42 13 c-23 6 -58 21 -78 32 l-36 20
-67 -48 -68 -47 -25 26 -25 25 47 67 48 67 -21 36 c-11 20 -26 56 -32 79 l-13
41 -78 13 -79 13 0 37 0 37 63 11 c35 6 70 11 79 11 9 0 20 17 28 43 7 23 21
59 32 81 l20 39 -46 65 -46 66 22 23 c12 13 25 23 30 23 5 0 36 -20 69 -44
l61 -44 61 29 c34 16 69 29 79 29 12 0 19 16 28 73 15 98 15 97 54 97 l34 0
12 -72z"/>
<path d="M1369 1683 c-126 -65 -156 -230 -61 -335 139 -154 384 -63 384 142 0
170 -169 270 -323 193z m178 -79 c55 -35 76 -109 47 -169 -23 -49 -67 -75
-125 -75 -143 0 -177 196 -44 256 34 16 88 10 122 -12z"/>
<path d="M820 2077 c-113 -34 -196 -83 -275 -162 -106 -105 -165 -232 -200
-430 -15 -83 -24 -104 -111 -253 -131 -228 -130 -259 17 -332 56 -29 80 -46
84 -63 2 -12 14 -92 25 -177 24 -178 43 -227 108 -277 55 -42 98 -53 205 -53
l87 0 0 -90 0 -90 45 0 45 0 0 135 0 135 -139 0 c-127 0 -141 2 -171 23 -64
43 -70 60 -101 274 -16 109 -29 199 -29 200 0 2 -40 23 -89 48 -49 24 -92 49
-96 55 -4 6 37 85 90 176 91 157 97 171 111 257 40 248 148 419 318 502 28 14
91 35 139 47 75 18 88 25 93 45 14 56 -35 66 -156 30z"/>
<path d="M1697 848 c-39 -51 -85 -150 -108 -230 -17 -59 -22 -111 -26 -270
l-6 -198 46 0 45 0 4 198 c4 179 7 204 31 277 14 44 42 105 61 135 50 77 46
120 -9 120 -8 0 -25 -15 -38 -32z"/>
</g>
</svg>
