<svg version="1.1" id="Layer_1" xmlns="http://www.w3.org/2000/svg" xmlns:xlink="http://www.w3.org/1999/xlink" x="0px" y="0px"
	 width="100%" viewBox="0 0 318 159" enable-background="new 0 0 318 159" xml:space="preserve">
<path fill="#FEFEFE" opacity="1.000000" stroke="none" 
	d="
M160.000000,160.000000 
	C107.048630,160.000000 54.097267,160.000000 1.072950,160.000000 
	C1.072950,107.097351 1.072950,54.194576 1.072950,1.000000 
	C53.687202,1.000000 106.374939,1.000000 159.531616,1.468657 
	C160.000351,54.624878 160.000168,107.312439 160.000000,160.000000 
M130.032516,78.216255 
	C130.037903,75.747314 130.404480,73.216164 129.991623,70.819260 
	C126.635979,51.337307 109.736153,34.925728 90.759476,31.091768 
	C89.204735,30.777657 87.408791,31.657440 84.991142,31.933228 
	C83.962738,31.369446 82.987892,30.556318 81.889084,30.320301 
	C81.000420,30.129421 79.962456,30.633574 78.171593,30.970285 
	C73.714432,31.493793 69.028610,31.307470 64.837692,32.657490 
	C40.026424,40.649929 25.501751,65.743073 31.181139,91.251556 
	C37.230114,118.419998 62.261089,134.406998 88.384026,130.160995 
	C99.573517,128.342270 109.220436,123.193398 116.970840,114.650436 
	C125.396355,105.363319 131.149918,95.115204 130.565598,81.936211 
	C130.433411,80.954315 130.301239,79.972412 130.032516,78.216255 
z"/>
<path fill="#000000" opacity="1.000000" stroke="none" 
	d="
M160.468658,160.000000 
	C160.000168,107.312439 160.000351,54.624878 160.000275,1.468657 
	C212.951370,1.000000 265.902740,1.000000 318.927063,1.000000 
	C318.927063,53.902649 318.927063,106.805428 318.927063,160.000000 
	C266.312805,160.000000 213.625061,160.000000 160.468658,160.000000 
M238.542816,29.982454 
	C235.573425,30.300783 232.566055,30.417542 229.640594,30.968952 
	C203.456268,35.904369 184.919830,62.016598 189.296188,87.700150 
	C194.035706,115.514999 219.080444,134.561752 245.968216,130.799744 
	C273.158081,126.995468 291.781555,103.689285 289.945404,75.764915 
	C288.293182,50.637192 265.698456,30.130775 238.542816,29.982454 
z"/>
<path fill="#F2F2F2" opacity="1.000000" stroke="none" 
	d="
M78.990723,30.829420 
	C79.962456,30.633574 81.000420,30.129421 81.889084,30.320301 
	C82.987892,30.556318 83.962738,31.369446 85.451691,32.343639 
	C87.754112,33.392757 89.561745,34.164268 91.443222,34.649292 
	C107.395042,38.761440 118.422318,48.564655 124.514656,63.743195 
	C126.098495,67.689194 126.400513,72.134666 127.578728,76.268806 
	C127.882736,77.335480 129.276108,78.091690 130.169052,78.990517 
	C130.301239,79.972412 130.433411,80.954315 129.859314,82.051460 
	C128.444778,83.418404 127.216347,84.627113 127.108780,85.928452 
	C126.037041,98.895172 119.651215,109.013458 110.056175,117.171967 
	C98.683357,126.842102 85.118347,130.808838 70.774292,127.218506 
	C61.923645,125.003197 53.294720,120.902542 46.641132,113.472260 
	C35.190449,100.684914 30.814117,86.228020 34.707077,69.593689 
	C39.196281,50.411633 54.324703,36.896118 73.685524,33.789425 
	C75.563889,33.488018 77.227448,31.848042 78.990723,30.829420 
M100.783836,102.074455 
	C101.939339,95.616158 103.094841,89.157867 104.279030,82.539215 
	C96.385651,82.539215 89.353699,82.539215 82.330368,82.539215 
	C82.330368,88.887840 82.330368,94.841263 82.330368,100.583076 
	C87.721870,101.692314 92.885025,102.810486 98.079453,103.756950 
	C98.778191,103.884262 99.634567,103.146385 100.783836,102.074455 
M78.050713,82.308479 
	C71.151543,82.308479 64.252373,82.308479 56.632217,82.308479 
	C58.002052,90.002251 59.261215,97.074417 60.483330,103.938499 
	C67.119919,102.772270 72.794052,101.775169 78.699066,100.737495 
	C78.699066,94.881409 78.699066,88.929527 78.050713,82.308479 
M78.692368,78.052582 
	C78.692368,72.079323 78.692368,66.106071 78.692368,60.350788 
	C72.689407,59.304111 66.919098,58.298000 60.340313,57.150921 
	C59.177059,64.140137 57.996784,71.231651 56.753693,78.700562 
	C64.420517,78.700562 71.221512,78.700562 78.692368,78.052582 
M90.529694,58.988415 
	C87.743393,59.562244 84.957092,60.136074 82.444656,60.653500 
	C82.444656,66.681595 82.444656,72.583344 82.444656,78.455994 
	C89.727089,78.455994 96.705605,78.455994 104.045494,78.455994 
	C103.425377,73.936890 103.112732,69.802284 102.256676,65.783417 
	C100.074455,55.538734 101.322678,56.604244 90.529694,58.988415 
M115.357109,106.862747 
	C120.662979,99.641594 123.717278,91.636574 124.078857,82.515167 
	C118.277184,82.515167 112.756966,82.515167 107.874664,82.515167 
	C106.630501,89.292419 105.585838,95.627029 104.255737,101.901115 
	C103.746643,104.302483 103.632996,106.328278 106.376846,106.975929 
	C109.160080,107.632866 111.807411,112.700645 115.357109,106.862747 
M119.223015,60.371323 
	C117.943260,58.301521 116.949417,55.951599 115.287926,54.255821 
	C114.087021,53.030155 111.264374,51.585136 110.447029,52.136936 
	C108.154633,53.684555 103.342644,53.022156 104.070938,57.674004 
	C105.161896,64.642288 106.613205,71.554153 107.917770,78.524803 
	C113.100418,78.524803 118.475647,78.524803 125.075920,78.524803 
	C123.141678,72.257736 121.403748,66.626732 119.223015,60.371323 
M56.093792,100.321571 
	C55.124981,94.437119 54.156166,88.552658 53.140980,82.386520 
	C48.058174,82.386520 42.667816,82.386520 36.922905,82.386520 
	C37.452141,93.205505 41.256989,102.353539 48.557648,110.253532 
	C50.592228,109.156319 52.458763,108.141541 54.332897,107.140999 
	C56.919838,105.759918 57.806637,103.830582 56.093792,100.321571 
M40.741959,78.847321 
	C45.019520,78.847321 49.297085,78.847321 53.475063,78.847321 
	C54.013920,74.248672 54.357246,70.192375 55.001438,66.184425 
	C55.499187,63.087578 57.475643,59.743965 56.733791,57.085064 
	C56.136703,54.945011 52.447258,53.675934 50.147846,51.995808 
	C49.682377,51.655708 49.297436,51.205395 48.705414,50.645020 
	C41.826126,57.844662 38.338566,66.240677 37.017647,75.672562 
	C36.707699,77.885674 37.177048,79.282295 40.741959,78.847321 
M65.892731,46.527805 
	C64.736931,48.793186 63.581127,51.058567 62.084595,53.991787 
	C68.070595,54.902378 73.202621,55.683060 78.563499,56.498554 
	C78.563499,49.550064 78.563499,43.398472 78.563499,36.946499 
	C72.943428,38.279079 69.280396,41.621765 65.892731,46.527805 
M76.383102,123.454445 
	C77.204666,122.999146 78.726540,122.564781 78.740875,122.085342 
	C78.907913,116.499519 78.847801,110.906898 78.847801,104.434898 
	C73.144104,105.349030 67.950935,106.181335 62.260433,107.093346 
	C65.280556,114.448868 68.828613,120.162857 76.383102,123.454445 
M85.346329,123.145760 
	C92.270668,120.062256 95.695152,114.181580 98.949043,106.735260 
	C92.772156,106.131317 87.521530,105.617943 82.150475,105.092789 
	C82.150475,111.296288 82.062584,116.439934 82.259415,121.572662 
	C82.284599,122.229530 83.792313,122.829544 85.346329,123.145760 
M97.371368,53.962212 
	C97.635605,53.604282 98.175140,53.199596 98.123459,52.895325 
	C97.065811,46.667793 88.755920,38.482586 82.146576,37.308571 
	C82.146576,40.481354 82.146576,43.607174 82.146576,46.732994 
	C82.146576,49.808216 82.146576,52.883438 82.146576,56.692612 
	C87.472328,55.740978 92.011520,54.929886 97.371368,53.962212 
M55.884060,44.387112 
	C54.423779,45.562984 52.963497,46.738857 51.157780,48.192890 
	C53.340786,49.387718 54.833233,50.498631 56.508621,51.008968 
	C57.480824,51.305115 59.320534,51.022648 59.783489,50.335754 
	C62.009312,47.033287 63.899128,43.504356 65.908234,40.055828 
	C65.731468,39.797104 65.554710,39.538383 65.377953,39.279663 
	C62.422009,40.844913 59.466068,42.410164 55.884060,44.387112 
M55.299824,116.142960 
	C58.712788,118.017738 62.125751,119.892517 65.538719,121.767296 
	C64.722046,118.751022 63.226124,116.824471 62.076981,114.709488 
	C58.666363,108.432259 57.518780,108.213112 51.669720,113.275108 
	C52.682117,114.122658 53.665375,114.945816 55.299824,116.142960 
M96.099190,42.116562 
	C98.207108,45.424618 100.315025,48.732674 102.513725,52.183193 
	C104.959076,50.858112 107.205124,49.641026 110.219254,48.007732 
	C105.323364,45.012978 101.288734,42.514244 97.184761,40.135113 
	C96.999786,40.027874 96.187004,41.003586 96.099190,42.116562 
M95.064934,120.853500 
	C101.186554,120.604134 105.016335,116.451912 110.355652,112.663498 
	C108.271675,112.092705 107.113121,112.132515 106.593712,111.575897 
	C102.864799,107.579857 101.310425,110.168213 99.582733,113.544083 
	C98.392197,115.870354 96.644379,117.911415 95.064934,120.853500 
z"/>
<path fill="#252122" opacity="1.000000" stroke="none" 
	d="
M78.581161,30.899853 
	C77.227448,31.848042 75.563889,33.488018 73.685524,33.789425 
	C54.324703,36.896118 39.196281,50.411633 34.707077,69.593689 
	C30.814117,86.228020 35.190449,100.684914 46.641132,113.472260 
	C53.294720,120.902542 61.923645,125.003197 70.774292,127.218506 
	C85.118347,130.808838 98.683357,126.842102 110.056175,117.171967 
	C119.651215,109.013458 126.037041,98.895172 127.108780,85.928452 
	C127.216347,84.627113 128.444778,83.418404 129.525604,82.102722 
	C131.149918,95.115204 125.396355,105.363319 116.970840,114.650436 
	C109.220436,123.193398 99.573517,128.342270 88.384026,130.160995 
	C62.261089,134.406998 37.230114,118.419998 31.181139,91.251556 
	C25.501751,65.743073 40.026424,40.649929 64.837692,32.657490 
	C69.028610,31.307470 73.714432,31.493793 78.581161,30.899853 
z"/>
<path fill="#2A2627" opacity="1.000000" stroke="none" 
	d="
M130.100784,78.603386 
	C129.276108,78.091690 127.882736,77.335480 127.578728,76.268806 
	C126.400513,72.134666 126.098495,67.689194 124.514656,63.743195 
	C118.422318,48.564655 107.395042,38.761440 91.443222,34.649292 
	C89.561745,34.164268 87.754112,33.392757 85.818588,32.368263 
	C87.408791,31.657440 89.204735,30.777657 90.759476,31.091768 
	C109.736153,34.925728 126.635979,51.337307 129.991623,70.819260 
	C130.404480,73.216164 130.037903,75.747314 130.100784,78.603386 
z"/>
<path fill="#ECECEC" opacity="1.000000" stroke="none" 
	d="
M239.021408,29.982162 
	C265.698456,30.130775 288.293182,50.637192 289.945404,75.764915 
	C291.781555,103.689285 273.158081,126.995468 245.968216,130.799744 
	C219.080444,134.561752 194.035706,115.514999 189.296188,87.700150 
	C184.919830,62.016598 203.456268,35.904369 229.640594,30.968952 
	C232.566055,30.417542 235.573425,30.300783 239.021408,29.982162 
M195.107452,96.153214 
	C195.408020,96.926216 195.688751,97.707634 196.012054,98.471008 
	C205.695480,121.334053 230.674240,132.801727 254.105957,125.145630 
	C277.227722,117.590805 290.774109,93.775337 285.309570,70.287491 
	C279.135498,43.749683 253.085800,28.062168 226.904510,35.115044 
	C201.178513,42.045277 186.680298,69.363281 195.107452,96.153214 
z"/>
<path fill="#292526" opacity="1.000000" stroke="none" 
	d="
M100.600891,102.441803 
	C99.634567,103.146385 98.778191,103.884262 98.079453,103.756950 
	C92.885025,102.810486 87.721870,101.692314 82.330368,100.583076 
	C82.330368,94.841263 82.330368,88.887840 82.330368,82.539215 
	C89.353699,82.539215 96.385651,82.539215 104.279030,82.539215 
	C103.094841,89.157867 101.939339,95.616158 100.600891,102.441803 
z"/>
<path fill="#282526" opacity="1.000000" stroke="none" 
	d="
M78.374893,82.643066 
	C78.699066,88.929527 78.699066,94.881409 78.699066,100.737495 
	C72.794052,101.775169 67.119919,102.772270 60.483330,103.938499 
	C59.261215,97.074417 58.002052,90.002251 56.632217,82.308479 
	C64.252373,82.308479 71.151543,82.308479 78.374893,82.643066 
z"/>
<path fill="#292526" opacity="1.000000" stroke="none" 
	d="
M78.357437,78.376572 
	C71.221512,78.700562 64.420517,78.700562 56.753693,78.700562 
	C57.996784,71.231651 59.177059,64.140137 60.340313,57.150921 
	C66.919098,58.298000 72.689407,59.304111 78.692368,60.350788 
	C78.692368,66.106071 78.692368,72.079323 78.357437,78.376572 
z"/>
<path fill="#292526" opacity="1.000000" stroke="none" 
	d="
M90.939178,58.952011 
	C101.322678,56.604244 100.074455,55.538734 102.256676,65.783417 
	C103.112732,69.802284 103.425377,73.936890 104.045494,78.455994 
	C96.705605,78.455994 89.727089,78.455994 82.444656,78.455994 
	C82.444656,72.583344 82.444656,66.681595 82.444656,60.653500 
	C84.957092,60.136074 87.743393,59.562244 90.939178,58.952011 
z"/>
<path fill="#272324" opacity="1.000000" stroke="none" 
	d="
M115.144875,107.161469 
	C111.807411,112.700645 109.160080,107.632866 106.376846,106.975929 
	C103.632996,106.328278 103.746643,104.302483 104.255737,101.901115 
	C105.585838,95.627029 106.630501,89.292419 107.874664,82.515167 
	C112.756966,82.515167 118.277184,82.515167 124.078857,82.515167 
	C123.717278,91.636574 120.662979,99.641594 115.144875,107.161469 
z"/>
<path fill="#272324" opacity="1.000000" stroke="none" 
	d="
M119.444412,60.683525 
	C121.403748,66.626732 123.141678,72.257736 125.075920,78.524803 
	C118.475647,78.524803 113.100418,78.524803 107.917770,78.524803 
	C106.613205,71.554153 105.161896,64.642288 104.070938,57.674004 
	C103.342644,53.022156 108.154633,53.684555 110.447029,52.136936 
	C111.264374,51.585136 114.087021,53.030155 115.287926,54.255821 
	C116.949417,55.951599 117.943260,58.301521 119.444412,60.683525 
z"/>
<path fill="#262324" opacity="1.000000" stroke="none" 
	d="
M56.199966,100.718369 
	C57.806637,103.830582 56.919838,105.759918 54.332897,107.140999 
	C52.458763,108.141541 50.592228,109.156319 48.557648,110.253532 
	C41.256989,102.353539 37.452141,93.205505 36.922905,82.386520 
	C42.667816,82.386520 48.058174,82.386520 53.140980,82.386520 
	C54.156166,88.552658 55.124981,94.437119 56.199966,100.718369 
z"/>
<path fill="#272324" opacity="1.000000" stroke="none" 
	d="
M40.274876,78.847183 
	C37.177048,79.282295 36.707699,77.885674 37.017647,75.672562 
	C38.338566,66.240677 41.826126,57.844662 48.705414,50.645020 
	C49.297436,51.205395 49.682377,51.655708 50.147846,51.995808 
	C52.447258,53.675934 56.136703,54.945011 56.733791,57.085064 
	C57.475643,59.743965 55.499187,63.087578 55.001438,66.184425 
	C54.357246,70.192375 54.013920,74.248672 53.475063,78.847321 
	C49.297085,78.847321 45.019520,78.847321 40.274876,78.847183 
z"/>
<path fill="#282425" opacity="1.000000" stroke="none" 
	d="
M66.092377,46.213623 
	C69.280396,41.621765 72.943428,38.279079 78.563499,36.946499 
	C78.563499,43.398472 78.563499,49.550064 78.563499,56.498554 
	C73.202621,55.683060 68.070595,54.902378 62.084595,53.991787 
	C63.581127,51.058567 64.736931,48.793186 66.092377,46.213623 
z"/>
<path fill="#282425" opacity="1.000000" stroke="none" 
	d="
M76.020844,123.301056 
	C68.828613,120.162857 65.280556,114.448868 62.260433,107.093346 
	C67.950935,106.181335 73.144104,105.349030 78.847801,104.434898 
	C78.847801,110.906898 78.907913,116.499519 78.740875,122.085342 
	C78.726540,122.564781 77.204666,122.999146 76.020844,123.301056 
z"/>
<path fill="#282425" opacity="1.000000" stroke="none" 
	d="
M84.979782,123.300827 
	C83.792313,122.829544 82.284599,122.229530 82.259415,121.572662 
	C82.062584,116.439934 82.150475,111.296288 82.150475,105.092789 
	C87.521530,105.617943 92.772156,106.131317 98.949043,106.735260 
	C95.695152,114.181580 92.270668,120.062256 84.979782,123.300827 
z"/>
<path fill="#292526" opacity="1.000000" stroke="none" 
	d="
M96.961044,54.040504 
	C92.011520,54.929886 87.472328,55.740978 82.146576,56.692612 
	C82.146576,52.883438 82.146576,49.808216 82.146576,46.732994 
	C82.146576,43.607174 82.146576,40.481354 82.146576,37.308571 
	C88.755920,38.482586 97.065811,46.667793 98.123459,52.895325 
	C98.175140,53.199596 97.635605,53.604282 96.961044,54.040504 
z"/>
<path fill="#2A2728" opacity="1.000000" stroke="none" 
	d="
M56.197090,44.181263 
	C59.466068,42.410164 62.422009,40.844913 65.377953,39.279663 
	C65.554710,39.538383 65.731468,39.797104 65.908234,40.055828 
	C63.899128,43.504356 62.009312,47.033287 59.783489,50.335754 
	C59.320534,51.022648 57.480824,51.305115 56.508621,51.008968 
	C54.833233,50.498631 53.340786,49.387718 51.157780,48.192890 
	C52.963497,46.738857 54.423779,45.562984 56.197090,44.181263 
z"/>
<path fill="#2A2728" opacity="1.000000" stroke="none" 
	d="
M54.974228,115.955963 
	C53.665375,114.945816 52.682117,114.122658 51.669720,113.275108 
	C57.518780,108.213112 58.666363,108.432259 62.076981,114.709488 
	C63.226124,116.824471 64.722046,118.751022 65.538719,121.767296 
	C62.125751,119.892517 58.712788,118.017738 54.974228,115.955963 
z"/>
<path fill="#292526" opacity="1.000000" stroke="none" 
	d="
M95.882919,41.795723 
	C96.187004,41.003586 96.999786,40.027874 97.184761,40.135113 
	C101.288734,42.514244 105.323364,45.012978 110.219254,48.007732 
	C107.205124,49.641026 104.959076,50.858112 102.513725,52.183193 
	C100.315025,48.732674 98.207108,45.424618 95.882919,41.795723 
z"/>
<path fill="#292526" opacity="1.000000" stroke="none" 
	d="
M95.105286,120.466721 
	C96.644379,117.911415 98.392197,115.870354 99.582733,113.544083 
	C101.310425,110.168213 102.864799,107.579857 106.593712,111.575897 
	C107.113121,112.132515 108.271675,112.092705 110.355652,112.663498 
	C105.016335,116.451912 101.186554,120.604134 95.105286,120.466721 
z"/>
<path fill="#0B0B0B" opacity="1.000000" stroke="none" 
	d="
M195.015503,95.763924 
	C186.680298,69.363281 201.178513,42.045277 226.904510,35.115044 
	C253.085800,28.062168 279.135498,43.749683 285.309570,70.287491 
	C290.774109,93.775337 277.227722,117.590805 254.105957,125.145630 
	C230.674240,132.801727 205.695480,121.334053 196.012054,98.471008 
	C195.688751,97.707634 195.408020,96.926216 195.015503,95.763924 
M223.826080,39.621021 
	C219.286789,42.138363 214.747482,44.655704 209.188507,47.738529 
	C212.888611,49.739807 215.247284,51.015537 217.569763,52.271694 
	C220.311630,47.977707 222.780182,44.111736 225.734024,39.988388 
	C225.329422,39.803909 224.924820,39.619434 223.826080,39.621021 
M255.168213,121.381409 
	C259.708282,118.864456 264.248322,116.347511 269.809998,113.264198 
	C266.119537,111.258858 263.764709,109.979279 261.441040,108.716637 
	C258.704437,113.016945 256.243378,116.884232 253.146149,120.853088 
	C252.847977,121.117737 252.549820,121.382385 252.251648,121.647034 
	C252.991669,121.618858 253.731689,121.590683 255.168213,121.381409 
M224.981339,121.865532 
	C225.240814,121.806587 225.500275,121.747643 225.759750,121.688690 
	C225.589127,121.376900 225.418518,121.065109 225.024887,120.108604 
	C222.580704,116.424133 220.136520,112.739655 217.486755,108.745270 
	C215.121796,110.036484 212.778793,111.315712 208.986145,113.386406 
	C214.989151,116.547226 219.754593,119.056419 224.981339,121.865532 
M253.910522,39.111588 
	C253.312317,39.141384 252.714111,39.171181 250.821930,39.265434 
	C252.629791,39.863998 253.204437,40.054253 253.988113,40.892479 
	C256.426422,44.577736 258.864746,48.262993 261.509430,52.260185 
	C263.882294,50.958450 266.220886,49.675526 270.010376,47.596642 
	C263.996582,44.440449 259.230988,41.939335 253.910522,39.111588 
M241.070328,99.174774 
	C241.538239,99.901253 241.911041,101.168556 242.488846,101.270164 
	C247.983353,102.236397 253.512665,103.004814 259.813538,103.946991 
	C261.000275,96.774063 262.171387,89.695457 263.373810,82.427513 
	C255.357071,82.427513 248.307281,82.427513 241.068924,82.427513 
	C241.068924,87.930710 241.068924,93.083427 241.070328,99.174774 
M232.295609,101.830231 
	C234.083527,101.630257 235.871445,101.430290 237.596954,101.237297 
	C237.596954,94.706123 237.596954,88.501945 237.596954,82.459915 
	C230.246597,82.459915 223.235626,82.459915 215.482605,82.459915 
	C216.835632,90.011070 218.098343,97.058167 219.365479,104.130005 
	C224.023224,103.267502 227.720230,102.582901 232.295609,101.830231 
M259.215515,78.923775 
	C260.343628,78.840431 261.471710,78.757088 263.504608,78.606903 
	C262.148590,71.077644 260.855682,63.898720 259.607025,56.965637 
	C252.769913,58.124722 247.070892,59.090862 241.437897,60.045811 
	C241.437897,66.314644 241.437897,72.544556 241.437897,78.923325 
	C247.295486,78.923325 252.785049,78.923325 259.215515,78.923775 
M236.184586,78.917969 
	C236.765259,78.131104 237.827332,77.357239 237.848999,76.555260 
	C237.997086,71.076920 237.926620,65.592659 237.926620,60.095337 
	C231.820740,59.072704 225.996796,58.097290 219.256134,56.968338 
	C218.051422,64.170097 216.853149,71.333305 215.583328,78.924347 
	C222.939133,78.924347 229.086456,78.924347 236.184586,78.917969 
M282.879761,87.077545 
	C282.879761,85.495636 282.879761,83.913734 282.879761,82.369324 
	C277.171356,82.369324 271.758118,82.369324 266.779327,82.369324 
	C265.396088,90.328346 264.074646,97.931862 262.729645,105.670853 
	C265.481079,107.141861 268.382965,108.693275 271.379395,110.295250 
	C277.633240,104.007179 280.981232,96.373543 282.879761,87.077545 
M282.096710,70.572662 
	C280.412689,62.950691 276.866760,56.354149 271.376129,50.664078 
	C268.201569,52.403400 265.217072,54.038605 262.759216,55.385246 
	C264.168884,63.521084 265.487274,71.129997 266.782837,78.607430 
	C272.215515,78.607430 277.620880,78.607430 283.343994,78.607430 
	C282.964203,75.969215 282.634979,73.682304 282.096710,70.572662 
M201.590088,78.920372 
	C205.331299,78.920372 209.072525,78.920372 212.178192,78.920372 
	C213.604004,70.608200 214.887756,63.124203 216.225266,55.326878 
	C213.639801,53.945969 210.624741,52.335613 207.497604,50.665398 
	C200.257004,58.744724 196.160553,67.802139 195.832336,78.920410 
	C197.683365,78.920410 199.156006,78.920410 201.590088,78.920372 
M205.537201,108.067459 
	C210.763107,112.937836 212.621475,104.989563 216.258667,105.848602 
	C214.856110,97.642097 213.558395,90.048950 212.229584,82.273956 
	C206.987259,82.273956 201.582901,82.273956 195.900513,82.273956 
	C196.014389,91.922104 199.412918,100.110046 205.537201,108.067459 
M250.663101,105.676125 
	C247.605209,105.314972 244.547318,104.953827 241.275665,104.567429 
	C241.275665,111.336082 241.275665,117.545418 241.275665,124.257332 
	C250.341141,121.772484 254.316315,115.087250 257.879181,107.390816 
	C255.352325,106.806053 253.428909,106.360931 250.663101,105.676125 
M224.148956,106.651619 
	C223.280380,106.920990 222.411804,107.190361 221.230728,107.556641 
	C224.770462,115.313560 228.850479,121.806221 237.570801,124.292168 
	C237.570801,117.453094 237.570801,111.151711 237.570801,104.406288 
	C233.081009,105.083496 229.009140,105.697662 224.148956,106.651619 
M241.085770,38.151390 
	C241.085770,44.084606 241.085770,50.017822 241.085770,56.704285 
	C246.859009,55.755539 252.118881,54.891155 258.400848,53.858810 
	C253.700439,46.288300 250.933319,38.373814 241.085770,38.151390 
M229.014557,41.471382 
	C226.292145,45.295452 223.569733,49.119526 220.197098,53.856937 
	C226.946274,54.912441 232.219864,55.737179 237.645065,56.585625 
	C237.645065,49.572826 237.645065,43.382572 237.645065,36.008759 
	C234.471619,37.979046 232.025665,39.497665 229.014557,41.471382 
z"/>
<path fill="#F8F8F8" opacity="1.000000" stroke="none" 
	d="
M241.069626,98.705460 
	C241.068924,93.083427 241.068924,87.930710 241.068924,82.427513 
	C248.307281,82.427513 255.357071,82.427513 263.373810,82.427513 
	C262.171387,89.695457 261.000275,96.774063 259.813538,103.946991 
	C253.512665,103.004814 247.983353,102.236397 242.488846,101.270164 
	C241.911041,101.168556 241.538239,99.901253 241.069626,98.705460 
z"/>
<path fill="#F8F8F8" opacity="1.000000" stroke="none" 
	d="
M231.856430,101.864265 
	C227.720230,102.582901 224.023224,103.267502 219.365479,104.130005 
	C218.098343,97.058167 216.835632,90.011070 215.482605,82.459915 
	C223.235626,82.459915 230.246597,82.459915 237.596954,82.459915 
	C237.596954,88.501945 237.596954,94.706123 237.596954,101.237297 
	C235.871445,101.430290 234.083527,101.630257 231.856430,101.864265 
z"/>
<path fill="#F8F8F8" opacity="1.000000" stroke="none" 
	d="
M258.745056,78.923553 
	C252.785049,78.923325 247.295486,78.923325 241.437897,78.923325 
	C241.437897,72.544556 241.437897,66.314644 241.437897,60.045811 
	C247.070892,59.090862 252.769913,58.124722 259.607025,56.965637 
	C260.855682,63.898720 262.148590,71.077644 263.504608,78.606903 
	C261.471710,78.757088 260.343628,78.840431 258.745056,78.923553 
z"/>
<path fill="#F8F8F8" opacity="1.000000" stroke="none" 
	d="
M235.709183,78.921158 
	C229.086456,78.924347 222.939133,78.924347 215.583328,78.924347 
	C216.853149,71.333305 218.051422,64.170097 219.256134,56.968338 
	C225.996796,58.097290 231.820740,59.072704 237.926620,60.095337 
	C237.926620,65.592659 237.997086,71.076920 237.848999,76.555260 
	C237.827332,77.357239 236.765259,78.131104 235.709183,78.921158 
z"/>
<path fill="#F9F9F9" opacity="1.000000" stroke="none" 
	d="
M282.831268,87.510147 
	C280.981232,96.373543 277.633240,104.007179 271.379395,110.295250 
	C268.382965,108.693275 265.481079,107.141861 262.729645,105.670853 
	C264.074646,97.931862 265.396088,90.328346 266.779327,82.369324 
	C271.758118,82.369324 277.171356,82.369324 282.879761,82.369324 
	C282.879761,83.913734 282.879761,85.495636 282.831268,87.510147 
z"/>
<path fill="#F9F9F9" opacity="1.000000" stroke="none" 
	d="
M282.201233,70.984032 
	C282.634979,73.682304 282.964203,75.969215 283.343994,78.607430 
	C277.620880,78.607430 272.215515,78.607430 266.782837,78.607430 
	C265.487274,71.129997 264.168884,63.521084 262.759216,55.385246 
	C265.217072,54.038605 268.201569,52.403400 271.376129,50.664078 
	C276.866760,56.354149 280.412689,62.950691 282.201233,70.984032 
z"/>
<path fill="#F9F9F9" opacity="1.000000" stroke="none" 
	d="
M201.109360,78.920395 
	C199.156006,78.920410 197.683365,78.920410 195.832336,78.920410 
	C196.160553,67.802139 200.257004,58.744724 207.497604,50.665398 
	C210.624741,52.335613 213.639801,53.945969 216.225266,55.326878 
	C214.887756,63.124203 213.604004,70.608200 212.178192,78.920372 
	C209.072525,78.920372 205.331299,78.920372 201.109360,78.920395 
z"/>
<path fill="#F9F9F9" opacity="1.000000" stroke="none" 
	d="
M205.303329,107.781670 
	C199.412918,100.110046 196.014389,91.922104 195.900513,82.273956 
	C201.582901,82.273956 206.987259,82.273956 212.229584,82.273956 
	C213.558395,90.048950 214.856110,97.642097 216.258667,105.848602 
	C212.621475,104.989563 210.763107,112.937836 205.303329,107.781670 
z"/>
<path fill="#F8F8F8" opacity="1.000000" stroke="none" 
	d="
M251.084290,105.795967 
	C253.428909,106.360931 255.352325,106.806053 257.879181,107.390816 
	C254.316315,115.087250 250.341141,121.772484 241.275665,124.257332 
	C241.275665,117.545418 241.275665,111.336082 241.275665,104.567429 
	C244.547318,104.953827 247.605209,105.314972 251.084290,105.795967 
z"/>
<path fill="#F8F8F8" opacity="1.000000" stroke="none" 
	d="
M224.543121,106.481720 
	C229.009140,105.697662 233.081009,105.083496 237.570801,104.406288 
	C237.570801,111.151711 237.570801,117.453094 237.570801,124.292168 
	C228.850479,121.806221 224.770462,115.313560 221.230728,107.556641 
	C222.411804,107.190361 223.280380,106.920990 224.543121,106.481720 
z"/>
<path fill="#F8F8F8" opacity="1.000000" stroke="none" 
	d="
M241.180695,37.732559 
	C250.933319,38.373814 253.700439,46.288300 258.400848,53.858810 
	C252.118881,54.891155 246.859009,55.755539 241.085770,56.704285 
	C241.085770,50.017822 241.085770,44.084606 241.180695,37.732559 
z"/>
<path fill="#F8F8F8" opacity="1.000000" stroke="none" 
	d="
M229.297119,41.243835 
	C232.025665,39.497665 234.471619,37.979046 237.645065,36.008759 
	C237.645065,43.382572 237.645065,49.572826 237.645065,56.585625 
	C232.219864,55.737179 226.946274,54.912441 220.197098,53.856937 
	C223.569733,49.119526 226.292145,45.295452 229.297119,41.243835 
z"/>
<path fill="#F0F0F0" opacity="1.000000" stroke="none" 
	d="
M254.465393,39.438225 
	C259.230988,41.939335 263.996582,44.440449 270.010376,47.596642 
	C266.220886,49.675526 263.882294,50.958450 261.509430,52.260185 
	C258.864746,48.262993 256.426422,44.577736 254.060303,40.371300 
	C254.243469,39.712826 254.354431,39.575527 254.465393,39.438225 
z"/>
<path fill="#F0F0F0" opacity="1.000000" stroke="none" 
	d="
M224.520035,121.565613 
	C219.754593,119.056419 214.989151,116.547226 208.986145,113.386406 
	C212.778793,111.315712 215.121796,110.036484 217.486755,108.745270 
	C220.136520,112.739655 222.580704,116.424133 224.947769,120.628067 
	C224.753784,121.286896 224.636902,121.426254 224.520035,121.565613 
z"/>
<path fill="#F0F0F0" opacity="1.000000" stroke="none" 
	d="
M253.782333,120.751518 
	C256.243378,116.884232 258.704437,113.016945 261.441040,108.716637 
	C263.764709,109.979279 266.119537,111.258858 269.809998,113.264198 
	C264.248322,116.347511 259.708282,118.864456 254.651871,121.265594 
	C254.017792,121.017021 253.900055,120.884270 253.782333,120.751518 
z"/>
<path fill="#F0F0F0" opacity="1.000000" stroke="none" 
	d="
M225.248749,40.245773 
	C222.780182,44.111736 220.311630,47.977707 217.569763,52.271694 
	C215.247284,51.015537 212.888611,49.739807 209.188507,47.738529 
	C214.747482,44.655704 219.286789,42.138363 224.348450,39.736847 
	C224.996796,39.983704 225.122772,40.114738 225.248749,40.245773 
z"/>
<path fill="#F0F0F0" opacity="1.000000" stroke="none" 
	d="
M253.955780,40.047318 
	C253.204437,40.054253 252.629791,39.863998 250.821930,39.265434 
	C252.714111,39.171181 253.312317,39.141384 254.187958,39.274910 
	C254.354431,39.575527 254.243469,39.712826 253.955780,40.047318 
z"/>
<path fill="#F0F0F0" opacity="1.000000" stroke="none" 
	d="
M254.303619,121.356140 
	C253.731689,121.590683 252.991669,121.618858 252.251648,121.647034 
	C252.549820,121.382385 252.847977,121.117737 253.464233,120.802307 
	C253.900055,120.884270 254.017792,121.017021 254.303619,121.356140 
z"/>
<path fill="#F0F0F0" opacity="1.000000" stroke="none" 
	d="
M224.695511,39.643814 
	C224.924820,39.619434 225.329422,39.803909 225.491394,40.117081 
	C225.122772,40.114738 224.996796,39.983704 224.695511,39.643814 
z"/>
<path fill="#F0F0F0" opacity="1.000000" stroke="none" 
	d="
M225.059265,120.950424 
	C225.418518,121.065109 225.589127,121.376900 225.759750,121.688690 
	C225.500275,121.747643 225.240814,121.806587 224.750687,121.715576 
	C224.636902,121.426254 224.753784,121.286896 225.059265,120.950424 
z"/>
</svg>